<svg width="218" height="378" viewBox="0 0 218 378" fill="none" xmlns="http://www.w3.org/2000/svg">
<path d="M112.306 32.727C111.978 33.0153 111.772 33.4167 111.729 33.8504C111.685 34.2842 111.808 34.7182 112.072 35.0655C112.336 35.4128 112.722 35.6476 113.152 35.7228C113.583 35.798 114.026 35.708 114.392 35.4708C114.592 35.3416 114.763 35.1727 114.894 34.9747C115.025 34.7766 115.114 34.5536 115.156 34.3197C115.197 34.0858 115.189 33.8459 115.133 33.6151C115.077 33.3843 114.973 33.1675 114.83 32.9783C114.686 32.7891 114.504 32.6315 114.297 32.5155C114.089 32.3994 113.86 32.3273 113.623 32.3037C113.386 32.2801 113.147 32.3055 112.92 32.3784C112.694 32.4512 112.485 32.5699 112.306 32.727Z" fill="black"/>
<path d="M98.9829 33.2237C99.2024 33.0789 99.3555 32.8533 99.4088 32.5963C99.4621 32.3392 99.4113 32.0716 99.2674 31.8518C99.1978 31.7441 99.1075 31.6514 99.0017 31.5788C98.8959 31.5062 98.7767 31.4552 98.6511 31.4288C98.5254 31.4024 98.3958 31.4011 98.2697 31.425C98.1435 31.4489 98.0234 31.4974 97.9161 31.5679C97.8056 31.6377 97.7098 31.7286 97.6345 31.8354C97.5591 31.9422 97.5056 32.0627 97.477 32.1901C97.4484 32.3176 97.4452 32.4494 97.4677 32.578C97.4902 32.7066 97.5378 32.8296 97.608 32.9398C97.757 33.154 97.9828 33.3028 98.2387 33.3556C98.4945 33.4085 98.761 33.3612 98.9829 33.2237Z" fill="black"/>
<path d="M217.99 353.687L216.52 349.43C216.454 349.252 216.339 349.096 216.188 348.98C216.035 347.849 215.653 346.761 215.067 345.781C214.48 344.801 213.7 343.95 212.775 343.28C211.452 342.499 209.984 341.994 208.46 341.795C206.936 341.595 205.388 341.706 203.908 342.12C197.322 343.206 190.638 343.587 183.971 343.256C181.6 343.125 179.223 343.173 176.859 343.398C176.48 335.45 170.458 302.358 164.129 267.398L162.611 259.071C162.137 256.47 147.273 224.892 135.444 202.302H137.814C137.953 202.303 138.091 202.273 138.218 202.216C138.345 202.159 138.458 202.075 138.549 201.971C138.648 201.873 138.725 201.754 138.774 201.623C138.823 201.493 138.844 201.353 138.834 201.214C138.312 193.006 127.692 127.556 125.463 113.836C136.582 121.642 158.226 135.976 161.829 132.168C170.316 123.227 165.812 77.7641 163.915 61.6084C164.154 61.7181 164.411 61.7823 164.674 61.7976C164.931 61.7948 165.187 61.7549 165.433 61.6794C165.737 61.5793 166.018 61.4187 166.258 61.2073C166.499 60.9959 166.693 60.7381 166.831 60.4494L167.851 58.4151C168.003 58.1313 168.096 57.8193 168.124 57.4983C168.151 57.1773 168.113 56.854 168.011 56.5484C167.909 56.2427 167.745 55.9611 167.53 55.7208C167.315 55.4805 167.053 55.2866 166.76 55.1509L164.034 53.8263L162.754 53.2586C162.74 51.7489 162.325 50.2698 161.55 48.973C160.775 47.6762 159.669 46.6082 158.344 45.8785C157.477 45.4517 156.49 45.3348 155.547 45.5474C155.486 45.1725 155.34 44.8164 155.12 44.5066C154.661 43.9974 154.074 43.6193 153.42 43.4115C152.766 43.2036 152.068 43.1734 151.398 43.3239C151.023 42.8547 150.557 42.4661 150.027 42.1815C149.497 41.897 148.915 41.7223 148.316 41.6681C147.544 41.6129 146.769 41.7166 146.039 41.973C145.309 42.2294 144.64 42.6329 144.073 43.1583C143.851 43.3801 143.645 43.6172 143.456 43.868L139.901 42.0939C139.582 41.9426 139.234 41.8641 138.881 41.8641C138.528 41.8641 138.18 41.9426 137.862 42.0939C137.749 41.9661 137.612 41.8616 137.459 41.7864L133.784 40.0124C134.48 38.1384 134.788 36.1433 134.69 34.1473C134.592 32.1513 134.091 30.1957 133.215 28.3983C132.173 26.2931 130.65 24.4619 128.768 23.0525C126.886 21.6431 124.698 20.6951 122.381 20.285C121.021 20.0959 119.641 20.0959 118.28 20.285C117.187 17.3277 115.904 14.4438 114.44 11.6513C113.488 9.80346 112.394 8.032 111.168 6.35281C107.707 1.62203 104.056 -0.45952 100.571 0.0845206C96.0433 0.794139 92.2977 4.10569 89.4292 9.9009C70.7484 9.78263 68.0933 12.2663 67.8325 14.2769C67.7682 14.7393 67.8072 15.2103 67.9465 15.656C68.0858 16.1017 68.3221 16.5112 68.6385 16.8552C71.0635 18.2989 73.8885 18.929 76.6988 18.6529C79.8757 18.6092 83.0451 18.3325 86.1814 17.825C86.0708 18.2665 85.9759 18.6686 85.8969 19.0313C85.1298 18.4968 84.2072 18.2301 83.2726 18.2729C82.3379 18.3157 81.4437 18.6655 80.7289 19.2679C77.813 21.4913 76.2483 26.8844 77.7893 29.3681C78.3656 30.1639 79.1367 30.7991 80.0289 31.2132C80.9212 31.6273 81.9049 31.8064 82.8862 31.7335H83.0521C81.2978 41.337 80.4918 50.0416 79.6621 59.243C79.3776 62.3417 79.0694 65.4877 78.7375 68.7046C77.7476 69.1693 76.8954 69.8821 76.2638 70.7734C75.6323 71.6647 75.2431 72.7041 75.1341 73.7902L56.7852 77.0781C56.7076 77.057 56.6258 77.057 56.5481 77.0781C10.747 97.4678 -3.26358 149.175 9.70392 187.4C9.81643 187.686 10.0381 187.916 10.3203 188.039C10.007 190.136 10.1117 192.274 10.6285 194.331C11.8144 198.535 11.4528 203.024 9.60909 206.986C9.12082 207.795 8.89938 208.738 8.97593 209.68C9.05247 210.622 9.42316 211.516 10.0358 212.237C10.2914 212.489 10.5951 212.689 10.9289 212.823C11.2627 212.957 11.62 213.023 11.9798 213.017C12.6122 213.002 13.2311 212.832 13.7815 212.521C14.0211 213.162 14.4209 213.732 14.9431 214.176C15.4049 214.514 15.9589 214.704 16.5314 214.72C17.1679 214.646 17.7817 214.439 18.3331 214.113C18.8844 213.787 19.3609 213.35 19.7318 212.828C20.2687 213.073 20.8487 213.21 21.4387 213.23C22.5331 213.215 23.5885 212.822 24.4257 212.118C25.6965 210.861 26.6983 209.36 27.3707 207.705C28.043 206.05 28.3719 204.277 28.3373 202.491C29.2422 202.37 30.0786 201.945 30.708 201.285C31.1539 200.765 31.4855 200.157 31.6815 199.501C31.8775 198.845 31.9335 198.156 31.8459 197.477V197.169C31.5998 194.931 30.983 192.748 30.0205 190.712C28.9844 188.144 27.4632 185.799 25.5399 183.805C26.749 183.166 26.6778 182.717 26.6304 182.267C20.5615 136.142 47.9664 113.292 55.4339 108.017C50.0762 143.025 43.8177 186.88 43.5806 201.9C43.5756 202.035 43.5982 202.17 43.6471 202.296C43.696 202.422 43.7702 202.537 43.8651 202.633C43.9626 202.727 44.0778 202.8 44.204 202.849C44.3301 202.898 44.4648 202.921 44.6 202.917H46.7573C46.7573 209.446 46.7573 216.423 46.7573 223.472C43.6484 223.555 40.5434 223.196 37.5355 222.408C37.4078 222.369 37.2735 222.356 37.1408 222.371C37.0081 222.386 36.8799 222.428 36.7642 222.495C36.6486 222.561 36.5479 222.651 36.4685 222.758C36.3891 222.865 36.3327 222.988 36.3027 223.118C36.2633 223.246 36.2506 223.382 36.2654 223.516C36.2802 223.65 36.3221 223.779 36.3886 223.897C36.4551 224.014 36.5449 224.116 36.6524 224.198C36.7599 224.28 36.8829 224.339 37.0139 224.371C39.8986 225.141 42.8704 225.539 45.8565 225.554H46.7336C46.3069 249.823 44.6948 264.536 41.8026 270.496C32.5571 289.42 11.4345 342.57 10.4388 345.077C10.4388 345.077 10.4388 345.195 10.2966 345.29L2.66306 360.452L0.0790536 365.183C-0.0263512 365.441 -0.0263512 365.73 0.0790536 365.987C0.120757 366.123 0.190976 366.248 0.285016 366.354C0.379055 366.46 0.494739 366.544 0.624304 366.602L25.2792 377.98C25.4201 378.007 25.5649 378.007 25.7059 377.98H55.4813C55.6152 377.98 55.7478 377.954 55.8715 377.902C55.9951 377.851 56.1075 377.776 56.2022 377.682C56.2968 377.587 56.3719 377.475 56.4231 377.352C56.4744 377.229 56.5007 377.096 56.5007 376.963V372.468C56.5221 372.375 56.5221 372.278 56.5007 372.185C56.5371 372.053 56.5371 371.914 56.5007 371.782C55.8606 367.359 49.5784 361.138 41.21 361.422C39.5979 361.422 38.7208 360.523 36.9902 358.513C35.137 356.199 32.9191 354.202 30.4235 352.599C37.8199 346.331 71.0092 310.046 84.7116 291.501C89.8796 284.547 94.5498 267.019 98.9355 249.231C104.72 256.777 124.041 282.607 124.847 284.192C127.858 290.649 136.51 308.579 144.144 324.404C150.568 337.674 155.997 349.146 157.064 351.275L157.349 351.724L162.754 367.501C162.718 367.649 162.718 367.803 162.754 367.951L164.176 372.114C164.275 372.365 164.46 372.575 164.698 372.705C164.847 372.73 164.999 372.73 165.148 372.705C165.258 372.727 165.37 372.727 165.48 372.705L217.018 354.894C217.163 354.882 217.304 354.841 217.432 354.773C217.56 354.706 217.674 354.612 217.765 354.499C217.856 354.387 217.923 354.256 217.961 354.117C218 353.977 218.01 353.831 217.99 353.687ZM112.97 47.9128C114.134 48.5311 115.379 48.9849 116.668 49.2611C117.695 49.4881 118.745 49.5992 119.797 49.5922C121.904 49.5873 123.985 49.1307 125.899 48.2533C127.813 47.3758 129.516 46.0981 130.892 44.5066C131.01 44.6352 131.146 44.7467 131.295 44.8378L134.946 46.6828C135.103 46.7072 135.263 46.7072 135.42 46.6828C135.483 47.038 135.628 47.374 135.841 47.6651C136.055 47.9562 136.332 48.1946 136.653 48.3622L140.09 50.1126C139.795 50.8683 139.692 51.6854 139.791 52.4905C139.891 53.2956 140.189 54.0635 140.659 54.7251C140.547 55.8436 140.685 56.9729 141.062 58.0322C141.439 59.0914 142.046 60.0542 142.84 60.8515C144.379 62.0853 146.321 62.7086 148.293 62.6019C148.814 62.6019 149.336 62.6019 149.834 62.6019C150.023 79.5854 149.549 95.4808 149.17 100.945C148.269 99.7859 147.012 98.0828 145.78 96.4034C141.868 91.0576 136.534 83.7485 131.366 78.0479C126.743 72.8913 112.235 73.3171 108.703 73.4354V73.3171C108.206 71.4614 107.052 69.8481 105.455 68.7756C105.194 68.6355 104.915 68.532 104.625 68.4681C103.555 65.3206 103.238 61.9668 103.701 58.6753C103.701 58.1076 103.701 57.469 103.701 56.8303H104.27C106.332 56.168 110.054 51.9813 112.97 47.9128ZM147.226 49.332H147.487C147.842 49.332 148.174 49.5686 148.198 50.2309C147.979 50.5641 147.715 50.8664 147.416 51.1297C146.652 51.8096 146.003 52.6084 145.495 53.4951C145.044 54.429 144.848 55.4653 144.926 56.4992C144.932 56.6328 144.965 56.7639 145.022 56.885C145.079 57.0061 145.159 57.1148 145.258 57.2049C145.357 57.2949 145.473 57.3646 145.599 57.41C145.725 57.4553 145.859 57.4753 145.993 57.469C146.144 57.46 146.29 57.4169 146.422 57.3432C146.553 57.2694 146.666 57.1669 146.752 57.0432C147.295 57.4629 147.961 57.6953 148.648 57.7055H149.099C149.328 58.082 149.638 58.4027 150.007 58.6441C150.376 58.8856 150.795 59.0417 151.232 59.1011H151.706C152.309 59.1027 152.899 58.9321 153.408 58.6093C153.916 58.2865 154.321 57.8251 154.575 57.2797L157.823 58.7463C156.415 59.2684 154.937 59.5793 153.437 59.6688H153.105C152.331 59.9299 151.538 60.1354 150.734 60.2838C149.655 60.5655 148.529 60.6205 147.427 60.4455C146.325 60.2704 145.272 59.869 144.334 59.2667C143.722 58.6119 143.269 57.8256 143.01 56.9684C142.751 56.1112 142.693 55.2061 142.84 54.323C142.94 53.4333 143.218 52.5727 143.657 51.7925C144.097 51.0122 144.69 50.3283 145.4 49.7814C145.95 49.4527 146.586 49.2961 147.226 49.332ZM165.836 56.9722C166.025 56.9722 166.096 57.2797 165.836 57.6346L164.887 59.5269C164.837 59.6103 164.763 59.6764 164.674 59.7161C164.582 59.7506 164.481 59.7506 164.389 59.7161L155.049 55.4347C155.286 54.4649 155.618 53.3532 156.163 53.0693C156.163 53.0693 156.471 52.9038 157.088 53.0693L161.118 54.7961L165.836 56.9722ZM157.467 47.7235C158.323 48.2159 159.053 48.8991 159.6 49.7199C160.147 50.5406 160.496 51.4765 160.62 52.4543L157.752 51.2007C156.992 50.8879 156.14 50.8879 155.381 51.2007C153.911 52.0049 153.461 53.9918 153.01 55.6003L152.821 56.4519C152.717 56.6944 152.534 56.8945 152.301 57.0192C152.069 57.1439 151.8 57.1858 151.54 57.1378C150.995 57.1378 150.734 56.6411 150.734 55.9315C151.471 53.3807 152.65 50.9788 154.219 48.8353C155.476 47.2505 156.353 47.2268 157.443 47.7235H157.467ZM153.437 45.713C153.674 46.0205 153.437 46.4699 153.176 46.8247L152.607 47.6289C150.825 50.0357 149.514 52.7561 148.743 55.6476C148.493 55.6025 148.252 55.5145 148.032 55.3874C147.853 55.238 147.719 55.0409 147.648 54.8189C147.577 54.597 147.57 54.3594 147.629 54.1338C148.008 53.5278 148.462 52.9715 148.98 52.478C149.354 52.1957 149.667 51.8404 149.899 51.4338C150.132 51.0271 150.279 50.5777 150.331 50.1126C150.344 49.5846 150.209 49.0635 149.941 48.608C149.673 48.1525 149.282 47.7807 148.814 47.5343C149.303 46.6551 150.025 45.9269 150.9 45.4291L151.256 45.2872C151.62 45.1507 152.014 45.1182 152.395 45.1934C152.777 45.2687 153.129 45.4486 153.413 45.713H153.437ZM145.495 44.5776C145.849 44.2631 146.261 44.0217 146.709 43.8674C147.157 43.7131 147.63 43.649 148.103 43.6787C148.529 43.728 148.937 43.8824 149.288 44.1282C148.131 44.9341 147.213 46.0375 146.633 47.3214C145.725 47.4195 144.858 47.7539 144.12 48.2912C143.36 48.838 142.715 49.5293 142.224 50.3255C142.786 48.6962 143.584 47.158 144.594 45.7603C144.862 45.3483 145.155 44.9533 145.472 44.5776H145.495ZM138.952 43.9153L142.247 45.5237C141.699 46.4021 141.216 47.3191 140.801 48.2676L137.601 46.6355C137.435 46.6355 137.34 46.3043 137.601 45.9495V45.8076L138.312 44.412L138.431 44.1282C138.446 44.0791 138.472 44.0338 138.506 43.9956C138.541 43.9575 138.583 43.9272 138.63 43.9069C138.678 43.8867 138.729 43.877 138.78 43.8784C138.832 43.8798 138.882 43.8924 138.929 43.9153H138.952ZM136.439 43.5368L135.799 44.8141L132.267 43.111L132.86 41.7628L136.439 43.5368ZM131.271 29.1789C132.16 30.9842 132.606 32.9741 132.573 34.985C132.54 36.996 132.029 38.9703 131.082 40.7456C129.83 43.1464 127.834 45.0794 125.392 46.257C123.248 47.2842 120.859 47.6939 118.493 47.4397C121.267 43.3239 126.174 35.0923 125.297 29.4154C124.887 27.0934 124.292 24.8075 123.519 22.5794C125.192 23.0928 126.741 23.9435 128.07 25.0787C129.399 26.2139 130.481 27.6095 131.248 29.1789H131.271ZM119.774 22.0827C120.258 22.0878 120.741 22.1273 121.22 22.2009C122.117 24.6704 122.807 27.2102 123.282 29.7939C123.851 33.5312 121.243 39.9887 116.17 47.0849C115.08 46.7951 114.035 46.3573 113.065 45.7839C110.94 44.5305 109.232 42.6791 108.157 40.4618C107.417 38.9557 106.982 37.3187 106.877 35.6444C106.771 33.9702 106.998 32.2917 107.545 30.7052C108.091 29.1187 108.945 27.6553 110.059 26.3989C111.173 25.1426 112.525 24.1179 114.037 23.3836C114.944 22.9401 115.898 22.5989 116.881 22.3665H117.427C118.187 22.1702 118.965 22.0513 119.75 22.0117L119.774 22.0827ZM100.808 2.00049C103.582 1.57472 106.474 3.41972 109.461 7.46455C110.247 8.5614 110.975 9.69833 111.642 10.8707C103.701 10.2794 96.9679 9.92456 91.6339 9.80629C94.0046 5.12281 97.0864 2.47357 100.69 1.92952L100.808 2.00049ZM70.0846 15.3177C69.9315 15.2004 69.8131 15.0438 69.7422 14.8647C69.6712 14.6856 69.6503 14.4906 69.6816 14.3005C69.6816 14.1823 70.1794 11.7696 88.3387 11.7696C88.1253 12.2663 87.8883 12.7867 87.6986 13.2834C87.509 13.7802 87.1296 14.9155 86.8926 15.6488C83.3129 16.3584 72.5975 17.5884 70.0846 15.3177ZM85.2331 31.4496C85.4905 31.3959 85.744 31.3248 85.9917 31.2368C86.1172 31.1851 86.2311 31.109 86.3267 31.0129C86.4223 30.9168 86.4977 30.8026 86.5485 30.677C86.5993 30.5514 86.6244 30.417 86.6225 30.2816C86.6205 30.1462 86.5914 30.0125 86.537 29.8885C86.4275 29.6398 86.2248 29.4437 85.9723 29.342C85.7199 29.2404 85.4376 29.2412 85.1857 29.3444C84.8218 29.5019 84.4395 29.6131 84.0478 29.6756C83.2514 29.9001 82.407 29.89 81.6162 29.6466C80.8255 29.4032 80.1221 28.9368 79.591 28.3037C78.6664 26.8135 79.828 22.5794 81.9616 20.9C83.1944 19.9538 84.3323 20.1431 85.6836 21.4913C86.3162 22.2159 86.865 23.0094 87.3193 23.8567C87.3813 23.9749 87.4666 24.0794 87.5701 24.164C87.6735 24.2486 87.7929 24.3115 87.9212 24.3491C88.0495 24.3866 88.1841 24.398 88.317 24.3825C88.4498 24.3669 88.5781 24.3249 88.6943 24.2588C88.9329 24.1331 89.1119 23.9181 89.1919 23.6609C89.2719 23.4037 89.2464 23.1254 89.121 22.8869C88.6977 22.0487 88.1893 21.2561 87.6038 20.5215V20.3796C87.7697 19.6936 88.0542 18.369 88.5283 16.7132C88.7891 15.838 89.0973 14.8682 89.4766 13.8748C89.8559 12.8813 90.0693 12.4082 90.4012 11.6513C96.1224 11.6513 103.511 12.0455 112.567 12.834C113.821 15.2658 114.929 17.7697 115.886 20.3323C114.921 20.5755 113.984 20.9163 113.088 21.3494C110.183 22.7701 107.821 25.098 106.362 27.9797C104.903 30.8613 104.427 34.1393 105.004 37.3158C105.004 40.0833 104.459 40.7693 104.175 40.9112C103.89 41.0531 103.535 40.9112 102.989 40.6037C102.875 40.532 102.747 40.4842 102.614 40.4632C102.481 40.4422 102.345 40.4485 102.214 40.4817C102.083 40.5149 101.96 40.5743 101.853 40.6562C101.746 40.7382 101.657 40.8411 101.591 40.9585C101.523 41.0748 101.479 41.2034 101.462 41.3367C101.444 41.47 101.453 41.6055 101.488 41.7353C101.524 41.8651 101.584 41.9866 101.667 42.0928C101.75 42.199 101.853 42.2878 101.97 42.3541C102.573 42.7411 103.269 42.9615 103.985 42.9928C104.397 42.9947 104.804 42.8974 105.17 42.7089C105.708 42.3856 106.124 41.8954 106.356 41.3133C107.462 43.4766 109.091 45.3303 111.097 46.7064C107.517 51.6738 104.554 54.3703 103.629 54.6305C103.281 54.7279 102.924 54.7912 102.563 54.8197C98.1295 55.1745 92.7718 50.5384 91.2783 46.4699C91.2336 46.3442 91.1639 46.2289 91.0735 46.1306C90.9831 46.0324 90.8738 45.9534 90.7521 45.8982C90.6305 45.843 90.4989 45.8128 90.3653 45.8094C90.2317 45.8061 90.0988 45.8296 89.9744 45.8785C89.8483 45.9235 89.7323 45.9929 89.6331 46.0826C89.5338 46.1724 89.4533 46.2808 89.3961 46.4016C89.3388 46.5224 89.306 46.6533 89.2995 46.7868C89.293 46.9203 89.3129 47.0537 89.3581 47.1795C90.3793 49.7066 92.0418 51.9252 94.1823 53.6172C96.3229 55.3093 98.8678 56.4166 101.567 56.8303C101.567 57.3744 101.567 57.9184 101.567 58.4151C101.17 61.5808 101.387 64.793 102.207 67.8767C95.1044 67.2468 87.9562 67.334 80.8711 68.1369C81.1714 65.125 81.4559 62.1919 81.7245 59.3376C82.6491 50.1126 83.4551 41.2424 85.2331 31.4496ZM23.596 184.798C25.5505 186.713 27.0774 189.018 28.0765 191.563C28.9599 193.41 29.5211 195.394 29.736 197.429V197.737C29.7895 198.117 29.7646 198.504 29.6627 198.874C29.5607 199.244 29.384 199.59 29.1433 199.889C28.8758 200.169 28.528 200.359 28.1476 200.433C28.0275 198.34 27.6289 196.272 26.9623 194.283C26.9196 194.155 26.8518 194.037 26.7629 193.936C26.674 193.834 26.5657 193.751 26.4444 193.692C26.323 193.632 26.1911 193.598 26.0562 193.589C25.9212 193.581 25.786 193.6 25.6585 193.645C25.4032 193.736 25.1937 193.923 25.0742 194.166C24.9547 194.409 24.9347 194.688 25.0184 194.946C27.389 201.734 25.8007 208.31 23.027 210.51C22.7429 210.761 22.4055 210.945 22.0401 211.047C21.6747 211.15 21.2907 211.168 20.9171 211.101C22.3391 208.949 23.262 206.507 23.6188 203.954C23.9756 201.4 23.7572 198.8 22.9796 196.341C22.9073 196.081 22.7343 195.86 22.4987 195.727C22.2631 195.594 21.9841 195.559 21.7232 195.632C21.4622 195.704 21.2407 195.876 21.1073 196.111C20.974 196.347 20.9397 196.625 21.012 196.885C21.7408 199.171 21.9254 201.595 21.5509 203.964C21.1764 206.333 20.2532 208.583 18.8547 210.534L18.5228 210.983C17.9064 211.787 16.7685 213.041 16.1521 212.521C15.9388 212.379 15.1801 211.338 15.7491 210.534C15.7683 210.432 15.7683 210.328 15.7491 210.226C17.7642 206.773 19.0917 200.599 18.1198 197.453C18.0329 197.199 17.8513 196.989 17.6129 196.866C17.3744 196.742 17.0974 196.715 16.8396 196.791C16.7092 196.831 16.5883 196.897 16.4839 196.984C16.3795 197.072 16.2938 197.18 16.2319 197.301C16.17 197.422 16.1332 197.555 16.1235 197.691C16.1139 197.826 16.1317 197.963 16.1758 198.092C17.3137 201.663 14.5401 209.919 12.7858 210.676C12.3354 210.936 11.719 211.149 11.3397 210.676C11.0671 210.252 10.9221 209.76 10.9221 209.256C10.9221 208.753 11.0671 208.26 11.3397 207.837C13.3837 203.475 13.8202 198.533 12.5724 193.881C11.8975 191.83 11.8975 189.617 12.5724 187.566C16.2944 186.785 19.9738 185.814 23.596 184.656V184.798ZM54.4146 376.206H25.9666L2.52083 365.396L4.13288 362.392L26.3934 373.178C26.5337 373.211 26.6798 373.211 26.8201 373.178L54.5331 373.722L54.4146 376.206ZM126.72 283.317C125.866 281.495 103.392 251.573 99.5756 246.7L101.069 240.55C103.226 231.586 105.265 223.141 107.257 216.116C107.294 215.987 107.305 215.852 107.291 215.719C107.276 215.585 107.234 215.456 107.17 215.339C107.105 215.221 107.017 215.118 106.912 215.034C106.807 214.95 106.686 214.888 106.557 214.85C106.428 214.813 106.293 214.802 106.159 214.817C106.025 214.831 105.896 214.872 105.778 214.937C105.66 215.002 105.557 215.089 105.473 215.194C105.389 215.299 105.326 215.419 105.289 215.548C103.274 222.644 101.235 231.089 99.0778 240.054L97.7265 245.66C97.6151 245.694 97.5162 245.759 97.442 245.849C97.2835 246.033 97.1963 246.268 97.1963 246.511C97.1963 246.754 97.2835 246.989 97.442 247.174C93.2222 264.512 88.315 283.411 83.2181 290.295C68.2355 310.495 33.695 347.75 28.6929 351.795L28.124 351.487L12.5724 345.148C15.2276 338.501 34.8329 289.42 43.628 271.348C46.6862 265.009 48.3694 250.391 48.7487 225.365C57.6861 224.513 63.8972 219.782 66.2678 211.693C66.3079 211.564 66.3218 211.428 66.3088 211.294C66.2958 211.16 66.2562 211.029 66.1922 210.91C66.1282 210.791 66.0412 210.686 65.9361 210.601C65.8311 210.516 65.7101 210.453 65.5804 210.415C65.3165 210.348 65.037 210.384 64.799 210.516C64.561 210.648 64.3825 210.866 64.3002 211.125C63.3282 214.519 61.3189 217.527 58.5525 219.727C55.786 221.928 52.4002 223.212 48.8672 223.401C48.8672 216.305 48.8672 209.446 48.8672 202.964L133.002 202.373C144.855 225.057 160.075 257.321 160.478 259.521L161.995 267.847C168.206 302.051 174.607 337.39 174.702 344.107C172.876 344.912 165.67 347.348 158.51 349.666C156.898 346.213 151.801 335.639 145.969 323.647C138.336 307.704 129.683 289.774 126.672 283.317H126.72ZM166.073 370.553L165.267 368.187L214.861 351.014L215.667 353.38L166.073 370.553Z" fill="black"/>
<path d="M110.386 26.6479C110.211 26.7247 110.053 26.8355 109.921 26.9736C109.789 27.1118 109.686 27.2747 109.618 27.4529C109.549 27.631 109.517 27.821 109.523 28.0117C109.528 28.2024 109.572 28.3901 109.651 28.5639C109.811 28.9183 110.106 29.1946 110.471 29.3321C110.835 29.4696 111.24 29.457 111.595 29.2971C112.289 29.0798 113.02 29.0095 113.743 29.091C114.466 29.1725 115.163 29.4038 115.791 29.7702C116.062 30.0182 116.419 30.1536 116.787 30.1487C116.991 30.1458 117.192 30.1025 117.379 30.0213C117.567 29.9401 117.736 29.8226 117.877 29.6756C118.142 29.3984 118.29 29.0299 118.29 28.6467C118.29 28.2634 118.142 27.8949 117.877 27.6177C116.813 26.8362 115.567 26.3371 114.257 26.1675C112.947 25.9979 111.615 26.1632 110.386 26.6479Z" fill="black"/>
<path d="M84.4508 24.1406C83.5532 24.794 82.454 25.1122 81.3453 25.0394C81.2107 25.0196 81.0736 25.0274 80.9422 25.0625C80.8108 25.0975 80.6881 25.1591 80.5814 25.2433C80.4748 25.3275 80.3866 25.4326 80.3223 25.5521C80.258 25.6717 80.2188 25.8031 80.2073 25.9383C80.1943 26.072 80.2079 26.2069 80.2474 26.3353C80.2869 26.4637 80.3515 26.583 80.4375 26.6864C80.5234 26.7897 80.629 26.8751 80.7482 26.9375C80.8674 26.9999 80.9978 27.0382 81.1319 27.05H81.7009C83.1236 27.0581 84.5142 26.6286 85.6835 25.82C85.7923 25.7387 85.8836 25.6365 85.9522 25.5195C86.0208 25.4024 86.0652 25.2729 86.0829 25.1384C86.1005 25.004 86.0911 24.8674 86.0551 24.7366C86.0191 24.6059 85.9572 24.4837 85.8732 24.3771C85.7975 24.2658 85.7 24.1709 85.5864 24.0983C85.4729 24.0257 85.3458 23.9769 85.2128 23.9547C85.0798 23.9326 84.9437 23.9377 84.8127 23.9696C84.6817 24.0016 84.5586 24.0597 84.4508 24.1406Z" fill="black"/>
<path d="M95.2136 26.7662C95.9552 26.4182 96.7647 26.2378 97.5842 26.2378C98.4038 26.2378 99.2133 26.4182 99.9549 26.7662C100.124 26.8975 100.334 26.9646 100.548 26.9554C100.764 26.9555 100.974 26.8871 101.149 26.7601C101.323 26.6331 101.453 26.454 101.519 26.2487C101.585 26.0434 101.584 25.8226 101.516 25.618C101.448 25.4134 101.316 25.2356 101.14 25.1104C100.066 24.5449 98.8699 24.2493 97.6554 24.2493C96.4408 24.2493 95.2447 24.5449 94.1705 25.1104C93.9379 25.2516 93.771 25.4791 93.7065 25.7431C93.642 26.007 93.6853 26.2857 93.8268 26.5178C93.9682 26.7499 94.1963 26.9165 94.4608 26.9808C94.7254 27.0451 95.0047 27.0019 95.2373 26.8608L95.2136 26.7662Z" fill="black"/>
<path d="M98.3429 47.1086C98.2687 46.9961 98.1729 46.8994 98.061 46.8241C97.9492 46.7489 97.8234 46.6965 97.6911 46.6701C97.5588 46.6437 97.4225 46.6438 97.2902 46.6703C97.158 46.6969 97.0323 46.7493 96.9205 46.8247C96.6978 46.9782 96.5436 47.2121 96.4905 47.4769C96.4374 47.7417 96.4896 48.0168 96.636 48.2439C97.1657 49.0017 97.877 49.6151 98.7052 50.0283C99.5333 50.4415 100.452 50.6412 101.377 50.6093C102.046 50.636 102.711 50.499 103.314 50.2104C103.917 49.9218 104.441 49.4903 104.838 48.9536C104.974 48.7193 105.016 48.442 104.954 48.1784C104.892 47.9147 104.732 47.6844 104.507 47.5343C104.394 47.4616 104.267 47.4124 104.135 47.3897C104.003 47.367 103.867 47.3713 103.736 47.4022C103.606 47.4331 103.483 47.4901 103.375 47.5697C103.267 47.6494 103.176 47.75 103.108 47.8655C102.887 48.1063 102.614 48.295 102.311 48.4177C102.008 48.5405 101.68 48.5942 101.354 48.5751C100.768 48.6049 100.185 48.486 99.6585 48.2295C99.1319 47.973 98.6792 47.5873 98.3429 47.1086Z" fill="black"/>
</svg>
