<svg width="16" height="9" viewBox="0 0 16 9" fill="none" xmlns="http://www.w3.org/2000/svg">
<path d="M8 9C8.31567 8.99119 8.60428 8.87671 8.83878 8.63014L15.6933 1.77886C15.8918 1.58513 16 1.33855 16 1.04795C16 0.466732 15.531 0 14.9357 0C14.6471 0 14.3675 0.114481 14.1601 0.317025L8.00902 6.49022L1.83991 0.317025C1.63247 0.123288 1.36189 0 1.06426 0C0.468997 0 0 0.466732 0 1.04795C0 1.33855 0.10823 1.58513 0.306652 1.77886L7.17024 8.63014C7.41375 8.87671 7.68433 9 8 9Z" fill="#1C1C1E"/>
</svg>
