<svg width="31" height="30" viewBox="0 0 31 30" fill="none" xmlns="http://www.w3.org/2000/svg">
<path d="M6.80004 24H23.4407C25.3766 24 26.5 22.8596 26.5 20.6806V10.2031C26.5 8.02412 25.3666 6.88371 23.2 6.88371H13.9017C13.1795 6.88371 12.7481 6.72079 12.1864 6.25241L11.6247 5.78403C10.9126 5.19346 10.391 5 9.33777 5H6.49913C4.61339 5 3.5 6.12004 3.5 8.26849V20.6806C3.5 22.8698 4.63345 24 6.80004 24ZM5.49608 8.44159C5.49608 7.51501 6.00763 7.02626 6.90035 7.02626H8.80615C9.51832 7.02626 9.9396 7.19936 10.5113 7.66774L11.073 8.1463C11.7752 8.71651 12.3168 8.92015 13.37 8.92015H23.0696C23.9924 8.92015 24.5039 9.4089 24.5039 10.3864V10.9871H5.49608V8.44159ZM6.93044 21.9737C6.00763 21.9737 5.49608 21.485 5.49608 20.4973V12.769H24.5039V20.5075C24.5039 21.485 23.9924 21.9737 23.0696 21.9737H6.93044Z" fill="#1C1C1E"/>
</svg>
