<svg width="16" height="16" viewBox="0 0 16 16" fill="none" xmlns="http://www.w3.org/2000/svg">
<path d="M1.08831 9.08831H6.91169V14.9117C6.91169 15.5036 7.39857 16 8 16C8.60143 16 9.08831 15.5036 9.08831 14.9117V9.08831H14.9117C15.5036 9.08831 16 8.60143 16 8C16 7.39857 15.5036 6.91169 14.9117 6.91169H9.08831V1.08831C9.08831 0.49642 8.60143 0 8 0C7.39857 0 6.91169 0.49642 6.91169 1.08831V6.91169H1.08831C0.49642 6.91169 0 7.39857 0 8C0 8.60143 0.49642 9.08831 1.08831 9.08831Z" fill="#ADADAD"/>
</svg>
