<svg width="346" height="294" viewBox="0 0 346 294" fill="none" xmlns="http://www.w3.org/2000/svg">
<path d="M290.264 206.873C290.698 206.458 291.154 206.065 291.628 205.697C287.053 202.358 247.706 173.651 233.101 164.978C216.775 155.318 198.539 152.883 153.568 169.031C153.456 169.071 153.354 169.133 153.266 169.212C153.178 169.292 153.107 169.388 153.056 169.496C153.005 169.603 152.976 169.719 152.971 169.838C152.965 169.956 152.982 170.075 153.022 170.186C153.062 170.298 153.124 170.401 153.203 170.489C153.283 170.576 153.379 170.648 153.486 170.698C153.594 170.749 153.71 170.778 153.828 170.784C153.946 170.79 154.065 170.772 154.176 170.732C198.476 154.835 216.313 157.145 232.157 166.532C246.175 174.932 283.066 201.665 289.907 206.663L290.264 206.873Z" fill="black"/>
<path d="M280.128 220.984L216.271 194.315C214.514 193.404 212.584 192.878 210.608 192.773C208.632 192.668 206.656 192.986 204.813 193.706C204.7 193.742 204.595 193.799 204.505 193.876C204.414 193.952 204.339 194.046 204.285 194.151C204.23 194.256 204.197 194.371 204.187 194.489C204.176 194.608 204.19 194.727 204.226 194.84C204.302 195.07 204.466 195.26 204.682 195.37C204.898 195.48 205.149 195.501 205.38 195.428C210.101 193.874 212.053 194.63 215.746 196.058L280.464 223.105H280.737C280.914 223.098 281.087 223.051 281.243 222.967C281.399 222.884 281.535 222.766 281.639 222.622L281.828 222.349C281.282 221.908 280.716 221.446 280.128 220.984Z" fill="black"/>
<path d="M191.991 224.701C186.653 221.396 180.384 219.922 174.133 220.501C152.959 222.601 123.979 225.52 110.297 221.446C103.83 219.339 98.2097 215.209 94.2644 209.666C90.107 204.052 86.9284 197.776 84.8632 191.102L83.4782 191.501H83.2053C85.2777 198.401 88.545 204.883 92.8584 210.652C97.0265 216.501 102.964 220.852 109.793 223.063C123.811 227.263 153.022 224.323 174.322 222.181C180.148 221.651 185.988 223.029 190.963 226.108L247.748 267.394C247.898 267.51 248.084 267.57 248.273 267.562C248.394 267.563 248.515 267.54 248.627 267.493C248.739 267.446 248.84 267.376 248.924 267.288L249.196 267.015C248.776 266.389 248.32 265.786 247.832 265.21L191.991 224.701Z" fill="black"/>
<path d="M212.515 199.775C210.395 197.59 208.053 195.633 205.527 193.937C195.643 187.07 174.049 176.36 140.977 182.072C140.86 182.092 140.747 182.136 140.647 182.199C140.546 182.263 140.46 182.346 140.391 182.444C140.323 182.542 140.275 182.652 140.249 182.768C140.224 182.884 140.221 183.005 140.242 183.122C140.263 183.239 140.306 183.352 140.37 183.452C140.434 183.553 140.517 183.64 140.614 183.708C140.712 183.776 140.822 183.825 140.938 183.85C141.054 183.876 141.175 183.878 141.292 183.857C173.818 178.271 194.845 188.708 204.477 195.428C206.887 197.065 209.136 198.928 211.193 200.993L259.878 252.946C260.486 252.736 261.095 252.484 261.703 252.232L212.515 199.775Z" fill="black"/>
<path d="M128.995 53.9953C129.481 53.9953 129.876 53.6004 129.876 53.1133C129.876 52.6262 129.481 52.2313 128.995 52.2313C128.508 52.2313 128.113 52.6262 128.113 53.1133C128.113 53.6004 128.508 53.9953 128.995 53.9953Z" fill="black"/>
<path d="M117.222 53.8063C117.709 53.8063 118.103 53.4114 118.103 52.9243C118.103 52.4372 117.709 52.0423 117.222 52.0423C116.735 52.0423 116.341 52.4372 116.341 52.9243C116.341 53.4114 116.735 53.8063 117.222 53.8063Z" fill="black"/>
<path d="M63.4165 23.8818H59.8911C59.6517 23.8818 59.4222 23.7867 59.253 23.6173C59.0838 23.448 58.9887 23.2183 58.9887 22.9788C58.9886 22.7374 59.083 22.5055 59.2517 22.3328C59.4203 22.1601 59.6498 22.0603 59.8911 22.0548H63.4165C63.6578 22.0603 63.8873 22.1601 64.0559 22.3328C64.2246 22.5055 64.3189 22.7374 64.3189 22.9788C64.3189 23.2183 64.2238 23.448 64.0546 23.6173C63.8854 23.7867 63.6559 23.8818 63.4165 23.8818Z" fill="black"/>
<path d="M59.8911 23.8818H51.9588C51.7945 23.8816 51.6334 23.8364 51.4929 23.7513C51.3524 23.6662 51.2377 23.5443 51.1613 23.3988C51.0736 23.2607 51.027 23.1005 51.027 22.9368C51.027 22.7732 51.0736 22.6129 51.1613 22.4748L59.1356 10.505C59.2493 10.3466 59.4091 10.2273 59.5932 10.1634C59.7773 10.0995 59.9766 10.0941 60.1639 10.1481C60.3484 10.2031 60.5098 10.317 60.6235 10.4725C60.7372 10.628 60.7968 10.8164 60.7934 11.009V22.9368C60.7991 23.0589 60.78 23.1808 60.7372 23.2953C60.6944 23.4097 60.6288 23.5143 60.5444 23.6027C60.4601 23.691 60.3587 23.7613 60.2464 23.8093C60.1341 23.8573 60.0132 23.8819 59.8911 23.8818ZM53.5956 22.0548H58.9258V14.054L53.5956 22.0548Z" fill="black"/>
<path d="M59.8911 30.9167C59.6517 30.9167 59.4222 30.8215 59.253 30.6522C59.0838 30.4829 58.9887 30.2532 58.9887 30.0137V22.9788C58.9887 22.7393 59.0838 22.5097 59.253 22.3403C59.4222 22.171 59.6517 22.0758 59.8911 22.0758C60.1304 22.0758 60.3599 22.171 60.5291 22.3403C60.6983 22.5097 60.7934 22.7393 60.7934 22.9788V30.0137C60.7934 30.2532 60.6983 30.4829 60.5291 30.6522C60.3599 30.8215 60.1304 30.9167 59.8911 30.9167Z" fill="black"/>
<path d="M88.1998 23.9028H84.6743C84.4331 23.8973 84.2036 23.7975 84.0349 23.6249C83.8663 23.4522 83.7719 23.2203 83.7719 22.9788C83.7719 22.7393 83.867 22.5097 84.0362 22.3403C84.2055 22.171 84.435 22.0758 84.6743 22.0758H88.1998C88.4391 22.0758 88.6686 22.171 88.8378 22.3403C89.007 22.5097 89.1021 22.7393 89.1021 22.9788C89.1022 23.2203 89.0078 23.4522 88.8391 23.6249C88.6705 23.7975 88.441 23.8973 88.1998 23.9028Z" fill="black"/>
<path d="M84.6743 23.9028L76.721 23.9028C76.5577 23.8982 76.3983 23.8513 76.2586 23.7666C76.1188 23.682 76.0034 23.5625 75.9236 23.4198C75.8464 23.2743 75.806 23.1121 75.806 22.9473C75.806 22.7826 75.8464 22.6204 75.9236 22.4748L83.9188 10.505C84.0262 10.3446 84.1811 10.2219 84.3618 10.1541C84.5425 10.0863 84.7398 10.0768 84.9261 10.127C85.1127 10.1813 85.2769 10.2944 85.3941 10.4496C85.5113 10.6047 85.5753 10.7936 85.5767 10.988V22.9158C85.5852 23.0406 85.5683 23.1658 85.5271 23.2839C85.4859 23.402 85.4211 23.5104 85.3367 23.6027C85.2524 23.695 85.1501 23.7692 85.0363 23.8208C84.9224 23.8723 84.7993 23.9003 84.6743 23.9028ZM78.3788 22.0758H83.73V14.054L78.3788 22.0758Z" fill="black"/>
<path d="M84.6743 30.9377C84.4331 30.9322 84.2036 30.8324 84.0349 30.6597C83.8663 30.487 83.7719 30.2552 83.7719 30.0137V22.9788C83.7719 22.7393 83.867 22.5097 84.0362 22.3403C84.2055 22.171 84.435 22.0758 84.6743 22.0758C84.9136 22.0758 85.1431 22.171 85.3124 22.3403C85.4816 22.5097 85.5767 22.7393 85.5767 22.9788V30.0137C85.5767 30.2552 85.4823 30.487 85.3137 30.6597C85.145 30.8324 84.9155 30.9322 84.6743 30.9377Z" fill="black"/>
<path d="M70.0268 30.9587C66.921 30.9587 64.5917 26.4648 64.5917 20.4589C64.5917 14.453 66.921 9.95906 70.0268 9.95906C73.1326 9.95906 75.4829 14.453 75.4829 20.4589C75.4829 26.4648 73.1326 30.9587 70.0268 30.9587ZM70.0268 11.87C68.327 11.87 66.3964 15.419 66.3964 20.5009C66.3964 25.5828 68.327 29.1317 70.0268 29.1317C71.7266 29.1317 73.6782 25.5828 73.6782 20.5009C73.6782 15.419 71.7476 11.87 70.0268 11.87Z" fill="black"/>
<path d="M121.923 77.0109C119.568 76.8128 117.301 76.024 115.331 74.7174C113.362 73.4107 111.753 71.6284 110.654 69.535C110.597 69.4282 110.563 69.311 110.554 69.1906C110.545 69.0701 110.56 68.9491 110.599 68.8349C110.639 68.7207 110.701 68.6158 110.783 68.5267C110.864 68.4376 110.963 68.3663 111.073 68.317C111.288 68.2156 111.534 68.2028 111.758 68.2814C111.981 68.36 112.165 68.5237 112.27 68.737C113.969 72.2019 119.111 75.8349 122.972 75.0369C123.281 74.9851 123.583 74.9006 123.874 74.7849C126.141 73.8819 136.465 58.1742 134.681 51.0343C133.296 45.5744 127.714 34.4026 120.58 32.1347C118.926 31.6453 117.172 31.6053 115.497 32.0186C113.823 32.432 112.289 33.2838 111.052 34.4866C107.884 37.0696 107.422 40.7865 106.855 44.9864L106.646 46.4774C106.609 46.7155 106.481 46.9299 106.289 47.075C106.097 47.2202 105.856 47.2845 105.617 47.2544C105.381 47.2182 105.168 47.0894 105.027 46.8964C104.885 46.7035 104.826 46.4621 104.862 46.2254L105.051 44.7554C105.575 40.5555 106.142 36.1876 109.856 33.1426C111.324 31.7365 113.141 30.748 115.118 30.2792C117.095 29.8104 119.162 29.8782 121.104 30.4757C129.372 33.1846 135.08 45.5324 136.402 50.7403C138.354 58.4472 127.84 75.2889 124.504 76.6119C124.107 76.7817 123.692 76.9016 123.266 76.9689C122.82 77.0219 122.371 77.0359 121.923 77.0109Z" fill="black"/>
<path d="M102.805 56.4522C102.054 56.4927 101.304 56.356 100.615 56.0533C99.926 55.7506 99.3178 55.2902 98.8392 54.7093C97.2653 52.6093 98.1676 47.7374 100.539 45.5324C100.919 45.1516 101.373 44.8522 101.873 44.6525C102.372 44.4527 102.908 44.3568 103.445 44.3706C103.983 44.3843 104.513 44.5074 105.002 44.7325C105.49 44.9575 105.928 45.2797 106.289 45.6794C107.043 46.353 107.707 47.1225 108.261 47.9684C108.395 48.1689 108.443 48.4143 108.396 48.6506C108.349 48.8868 108.21 49.0947 108.01 49.2284C107.91 49.2945 107.799 49.3405 107.682 49.3637C107.565 49.3868 107.445 49.3867 107.328 49.3633C107.092 49.3161 106.884 49.1769 106.75 48.9764C106.29 48.2644 105.74 47.615 105.114 47.0444C103.876 45.9734 102.784 45.9104 101.777 46.8554C99.9723 48.5354 99.3428 52.3783 100.287 53.6173C100.818 54.1264 101.484 54.4722 102.206 54.6137C102.927 54.7552 103.674 54.6863 104.358 54.4153C104.692 54.3221 105.015 54.1955 105.324 54.0373C105.532 53.929 105.774 53.9059 105.998 53.9731C106.223 54.0403 106.413 54.1924 106.527 54.3971C106.642 54.6019 106.672 54.8432 106.612 55.07C106.552 55.2969 106.406 55.4913 106.205 55.6122C105.781 55.848 105.33 56.0314 104.862 56.1582C104.195 56.3573 103.502 56.4564 102.805 56.4522Z" fill="black"/>
<path d="M148.909 42.3825C148.672 42.356 148.454 42.2383 148.301 42.0542C148.148 41.8701 148.073 41.634 148.091 41.3955C148.154 37.7298 149.422 34.1871 151.7 31.3157C152.498 30.3019 153.498 29.4649 154.635 28.8576C155.773 28.2503 157.025 27.886 158.311 27.7877C161.143 27.7877 164.249 29.3417 167.334 32.5756C168.688 34.0135 169.923 35.5585 171.027 37.1956C171.095 37.2933 171.143 37.4036 171.168 37.5199C171.193 37.6363 171.195 37.7565 171.174 37.8736C171.152 37.9907 171.108 38.1024 171.043 38.2023C170.979 38.3022 170.895 38.3882 170.797 38.4555C170.7 38.5263 170.59 38.5766 170.473 38.6034C170.356 38.6301 170.235 38.6328 170.117 38.6112C169.999 38.5895 169.887 38.5441 169.788 38.4776C169.688 38.4112 169.603 38.325 169.537 38.2245C168.489 36.6696 167.317 35.2019 166.033 33.8356C165.088 32.6637 163.921 31.6897 162.6 30.969C161.278 30.2484 159.828 29.7953 158.331 29.6357C157.271 29.7096 156.238 30.008 155.301 30.5112C154.364 31.0144 153.544 31.7109 152.896 32.5546C150.953 35.147 149.907 38.3021 149.917 41.5425C149.909 41.6651 149.876 41.7848 149.821 41.8943C149.765 42.0038 149.688 42.1009 149.594 42.1795C149.499 42.2581 149.39 42.3167 149.272 42.3516C149.155 42.3865 149.031 42.397 148.909 42.3825Z" fill="black"/>
<path d="M148.469 42.6975L148.091 42.0045C148.009 41.8094 147.989 41.5939 148.034 41.3872C148.08 41.1805 148.187 40.9928 148.343 40.8495L148.615 40.6605C150.126 39.8835 158.227 35.7676 166.39 32.2607C182.003 25.7298 185.087 26.9897 186.032 28.8377C186.193 29.1643 186.276 29.5235 186.276 29.8877C186.276 30.2518 186.193 30.6111 186.032 30.9377C184.479 34.5286 174.763 37.6786 170.671 38.8755C163.637 40.9584 156.382 42.1991 149.056 42.5715L148.469 42.6975ZM182.737 29.2787C180.639 29.2787 176.442 30.1187 167.103 34.0456C161.605 36.3346 156.149 38.9385 152.729 40.6395C158.648 40.048 164.5 38.9092 170.209 37.2376C179.065 34.6546 183.723 31.9037 184.395 30.3287C184.443 30.2418 184.468 30.1443 184.468 30.0452C184.468 29.9461 184.443 29.8485 184.395 29.7617C184.374 29.6567 184.08 29.2787 182.737 29.2787Z" fill="black"/>
<path d="M114.242 49.5433C114.063 49.5466 113.888 49.4954 113.738 49.3964C113.541 49.2601 113.405 49.0524 113.358 48.8173C113.311 48.5822 113.357 48.338 113.487 48.1364C113.869 47.5993 114.372 47.1597 114.955 46.8533C115.538 46.5468 116.185 46.3821 116.844 46.3724C117.442 46.3249 118.042 46.4157 118.599 46.6379C119.156 46.86 119.654 47.2075 120.055 47.6534C120.13 47.7467 120.187 47.8541 120.22 47.9694C120.254 48.0846 120.264 48.2055 120.25 48.3247C120.237 48.444 120.199 48.5594 120.14 48.664C120.082 48.7687 120.003 48.8606 119.908 48.9344C119.817 49.0094 119.711 49.0652 119.597 49.0985C119.484 49.1318 119.365 49.1419 119.247 49.1282C119.13 49.1144 119.016 49.0772 118.913 49.0187C118.811 48.9601 118.721 48.8814 118.649 48.7874C118.417 48.5771 118.145 48.4151 117.849 48.3106C117.554 48.206 117.241 48.1611 116.928 48.1784C116.554 48.1784 116.184 48.2657 115.849 48.4333C115.514 48.601 115.222 48.8444 114.998 49.1444C114.913 49.2668 114.8 49.3671 114.669 49.4365C114.537 49.506 114.391 49.5426 114.242 49.5433Z" fill="black"/>
<path d="M125.469 49.7953C125.289 49.7876 125.114 49.7294 124.965 49.6274C124.858 49.5601 124.766 49.4711 124.696 49.366C124.625 49.2609 124.577 49.1421 124.555 49.0173C124.534 48.8926 124.538 48.7646 124.569 48.6418C124.6 48.5189 124.656 48.404 124.735 48.3044C125.119 47.7711 125.623 47.3356 126.206 47.0329C126.789 46.7302 127.435 46.5687 128.092 46.5614C128.69 46.5073 129.293 46.5951 129.851 46.8176C130.408 47.0402 130.906 47.3913 131.303 47.8424C131.452 48.0304 131.523 48.2693 131.499 48.5084C131.476 48.7476 131.36 48.9681 131.177 49.1234C131.084 49.1989 130.976 49.2551 130.861 49.2887C130.746 49.3223 130.625 49.3325 130.506 49.3188C130.387 49.3051 130.272 49.2678 130.167 49.209C130.062 49.1502 129.971 49.0711 129.897 48.9764C129.674 48.7517 129.404 48.5803 129.106 48.4748C128.808 48.3694 128.49 48.3327 128.176 48.3674C127.802 48.3706 127.434 48.4593 127.099 48.6267C126.764 48.7941 126.472 49.0358 126.245 49.3334C126.166 49.4705 126.054 49.585 125.918 49.6659C125.782 49.7468 125.627 49.7913 125.469 49.7953Z" fill="black"/>
<path d="M118.838 69.304C118.682 69.2998 118.53 69.2561 118.395 69.1771C118.261 69.0981 118.148 68.9863 118.069 68.8521C117.989 68.7179 117.945 68.5657 117.94 68.4097C117.935 68.2537 117.969 68.099 118.04 67.96C118.47 67.2983 119.063 66.7579 119.761 66.3902C120.459 66.0226 121.239 65.8401 122.028 65.8601C122.644 65.8163 123.262 65.9418 123.813 66.223C124.364 66.5042 124.827 66.9305 125.154 67.456C125.215 67.558 125.255 67.671 125.272 67.7885C125.289 67.906 125.283 68.0258 125.254 68.1409C125.224 68.2559 125.173 68.3641 125.102 68.4592C125.031 68.5543 124.942 68.6344 124.84 68.695C124.736 68.7549 124.622 68.7938 124.504 68.8093C124.386 68.8249 124.266 68.8168 124.15 68.7855C124.035 68.7543 123.927 68.7005 123.833 68.6273C123.739 68.5541 123.66 68.4629 123.601 68.359C123.417 68.1285 123.179 67.9468 122.909 67.8296C122.638 67.7125 122.343 67.6635 122.049 67.687C121.577 67.6728 121.109 67.7767 120.687 67.9894C120.266 68.2022 119.904 68.5169 119.635 68.905C119.548 69.0349 119.429 69.14 119.289 69.2099C119.149 69.2799 118.994 69.3123 118.838 69.304Z" fill="black"/>
<path d="M101.504 52.3783C101.386 52.3783 101.268 52.3549 101.159 52.3096C101.049 52.2642 100.95 52.1977 100.866 52.1138C100.782 52.03 100.716 51.9304 100.671 51.8209C100.625 51.7113 100.602 51.5939 100.602 51.4753C100.602 51.3567 100.625 51.2393 100.671 51.1298C100.716 51.0202 100.782 50.9207 100.866 50.8368C100.95 50.753 101.049 50.6864 101.159 50.6411C101.268 50.5957 101.386 50.5723 101.504 50.5723C102.484 50.5352 103.419 50.1563 104.148 49.5013C104.324 49.3371 104.557 49.2492 104.797 49.2571C105.037 49.2649 105.264 49.3679 105.428 49.5434C105.593 49.7188 105.68 49.9523 105.673 50.1925C105.665 50.4328 105.562 50.66 105.386 50.8243C104.319 51.7896 102.942 52.3409 101.504 52.3783Z" fill="black"/>
<path d="M124.609 63.5291C124.127 63.5127 123.651 63.4132 123.203 63.2351C122.976 63.15 122.791 62.979 122.689 62.759C122.587 62.5389 122.576 62.2876 122.657 62.0591C122.746 61.8358 122.919 61.656 123.138 61.558C123.358 61.46 123.607 61.4514 123.832 61.5341C124.336 61.7231 124.735 61.7441 124.902 61.5341C125.07 61.3241 125.427 60.7152 125.07 58.2792C125.07 57.6912 124.86 57.0402 124.735 56.3472C123.979 53.8127 123.921 51.1211 124.567 48.5564C124.656 48.3336 124.83 48.1553 125.05 48.0608C125.27 47.9663 125.519 47.9633 125.742 48.0524C125.964 48.1415 126.143 48.3155 126.237 48.536C126.332 48.7565 126.335 49.0056 126.246 49.2284C125.778 51.4774 125.871 53.8071 126.518 56.0112C126.644 56.7252 126.791 57.3972 126.875 58.0062C127.148 59.8962 127.253 61.9751 126.036 62.9621C125.643 63.3162 125.137 63.5174 124.609 63.5291Z" fill="black"/>
<path d="M87.7801 211.912C87.5479 211.913 87.3245 211.823 87.1564 211.663C86.9884 211.503 86.8885 211.284 86.8777 211.051C86.8662 210.81 86.9499 210.573 87.1107 210.393C87.2716 210.212 87.4969 210.102 87.7381 210.085C89.6273 210.002 91.5038 209.735 93.3411 209.288C97.5381 208.217 107.527 204.542 107.191 193.307C107.188 193.188 107.209 193.07 107.252 192.96C107.295 192.849 107.359 192.748 107.441 192.662C107.522 192.576 107.62 192.507 107.729 192.46C107.837 192.412 107.954 192.386 108.073 192.383C108.19 192.38 108.307 192.401 108.416 192.444C108.526 192.487 108.625 192.551 108.709 192.634C108.793 192.716 108.86 192.814 108.906 192.922C108.951 193.031 108.975 193.147 108.975 193.265C109.227 201.959 103.54 208.616 93.7398 211.051C91.7911 211.522 89.803 211.81 87.8011 211.912H87.7801Z" fill="black"/>
<path d="M87.7591 42.7395H85.0101C84.7917 42.7062 84.5925 42.5958 84.4486 42.4282C84.3047 42.2606 84.2255 42.047 84.2255 41.826C84.2255 41.605 84.3047 41.3913 84.4486 41.2237C84.5925 41.0561 84.7917 40.9457 85.0101 40.9125H87.7591C88.7478 40.9764 89.722 40.649 90.4717 40.0008C91.2214 39.3527 91.6867 38.4357 91.7672 37.4476V5.25514C91.6919 4.2632 91.2289 3.34095 90.4786 2.68839C89.7283 2.03582 88.7511 1.70555 87.7591 1.7692H51.7069C50.7136 1.69994 49.7334 2.02822 48.9818 2.68189C48.2302 3.33556 47.7687 4.26112 47.6988 5.25514V37.4476C47.774 38.4378 48.2377 39.3581 48.9887 40.0073C49.7397 40.6565 50.7169 40.9819 51.7069 40.9125H78.9874C79.1189 40.8925 79.2531 40.9011 79.3809 40.9379C79.5087 40.9746 79.6271 41.0385 79.728 41.1252C79.8289 41.212 79.9098 41.3195 79.9653 41.4404C80.0208 41.5614 80.0495 41.6929 80.0495 41.826C80.0495 41.9591 80.0208 42.0906 79.9653 42.2115C79.9098 42.3325 79.8289 42.44 79.728 42.5267C79.6271 42.6135 79.5087 42.6774 79.3809 42.7141C79.2531 42.7508 79.1189 42.7595 78.9874 42.7395H51.7069C50.233 42.808 48.7919 42.2899 47.6988 41.2982C46.6056 40.3066 45.9492 38.9221 45.8731 37.4476V5.25514C45.9651 3.79002 46.6277 2.41945 47.7185 1.43784C48.8093 0.456222 50.2413 -0.0581401 51.7069 0.00523184H87.7591C89.2329 -0.0575125 90.6716 0.466092 91.7608 1.46162C92.85 2.45715 93.5012 3.84365 93.5719 5.31813V37.4476C93.5012 38.9203 92.8494 40.3047 91.7595 41.2969C90.6697 42.2891 89.2309 42.8079 87.7591 42.7395Z" fill="black"/>
<path d="M83.2053 51.8533C82.8612 51.8538 82.5276 51.7351 82.261 51.5173C80.834 50.4043 79.6169 47.1704 78.5677 42.0045C78.2739 40.5135 78.127 39.4425 78.127 39.4425C78.0972 39.206 78.1621 38.9672 78.3076 38.7784C78.4531 38.5895 78.6672 38.4659 78.9034 38.4345C79.0225 38.4137 79.1445 38.4176 79.262 38.446C79.3794 38.4744 79.4898 38.5266 79.5862 38.5995C79.6827 38.6724 79.7631 38.7643 79.8225 38.8696C79.882 38.9749 79.9191 39.0913 79.9317 39.2115C79.9317 39.2115 80.0786 40.2405 80.3514 41.6685C80.6816 44.5564 81.5879 47.3485 83.0165 49.8793C83.6349 47.2672 83.8821 44.5808 83.751 41.8995C83.751 39.4635 83.751 37.5106 83.751 37.4896C83.7482 37.371 83.7688 37.253 83.8116 37.1424C83.8543 37.0317 83.9185 36.9306 84.0003 36.8448C84.0822 36.759 84.1801 36.6902 84.2886 36.6423C84.397 36.5944 84.5138 36.5683 84.6323 36.5656C84.8675 36.5693 85.0933 36.6588 85.2672 36.8174C85.4411 36.9759 85.5511 37.1926 85.5767 37.4266C85.5767 37.4266 85.5767 39.5265 85.5767 41.9205C85.5767 50.9503 84.3385 51.5173 83.73 51.8113C83.5594 51.8587 83.3813 51.873 83.2053 51.8533Z" fill="black"/>
<path d="M33.6599 88.3926C33.4655 88.3913 33.2768 88.3273 33.1218 88.21C32.9667 88.0927 32.8537 87.9284 32.7995 87.7417C29.2938 83.9356 24.7945 81.1862 19.8098 79.8038C17.8792 79.4678 17.0608 79.6568 16.8089 80.4758C16.78 80.5919 16.7277 80.7008 16.6554 80.7961C16.583 80.8913 16.492 80.9708 16.388 81.0297C16.284 81.0886 16.169 81.1258 16.0502 81.1389C15.9313 81.1519 15.8111 81.1407 15.6967 81.1058C15.467 81.0329 15.2739 80.8748 15.1568 80.664C15.0398 80.4531 15.0077 80.2055 15.0672 79.9718C15.8646 77.2419 19.0334 77.8719 20.0826 78.0189C25.9584 79.0898 34.0166 85.2427 34.6042 87.2587C34.6629 87.4896 34.6302 87.7344 34.5129 87.9418C34.3956 88.1492 34.2028 88.3032 33.9746 88.3717L33.6599 88.3926Z" fill="black"/>
<path d="M26.525 87.1747C26.3914 87.1763 26.2593 87.1468 26.1391 87.0885C26.0189 87.0302 25.9139 86.9446 25.8325 86.8387C23.0828 84.029 19.497 82.1869 15.6128 81.5888C13.3254 81.2108 11.9614 81.5888 11.7935 82.0718C11.7811 82.4081 11.8932 82.7371 12.1083 82.9957C12.2071 83.0628 12.2913 83.1492 12.3557 83.2498C12.4201 83.3503 12.4634 83.4629 12.4831 83.5807C12.5027 83.6986 12.4982 83.8191 12.4698 83.9352C12.4415 84.0512 12.3899 84.1603 12.3182 84.2557C12.2476 84.3536 12.1581 84.4364 12.055 84.4991C11.952 84.5618 11.8374 84.6032 11.718 84.6208C11.5987 84.6384 11.477 84.6319 11.3602 84.6017C11.2434 84.5714 11.1339 84.5181 11.0381 84.4447C10.616 84.096 10.3013 83.6348 10.1305 83.1145C9.95961 82.5941 9.93961 82.036 10.0728 81.5048C10.6184 79.8878 12.6959 79.2788 15.9066 79.7828C20.2115 80.4674 24.1755 82.5393 27.1965 85.6837C27.272 85.777 27.3282 85.8844 27.3617 85.9997C27.3953 86.115 27.4055 86.2358 27.3918 86.3551C27.3781 86.4743 27.3408 86.5897 27.2821 86.6944C27.2233 86.799 27.1443 86.8909 27.0496 86.9647C26.9052 87.0948 26.7192 87.1692 26.525 87.1747Z" fill="black"/>
<path d="M195.349 84.8437H195.076C194.847 84.771 194.656 84.6119 194.542 84.4002C194.428 84.1885 194.402 83.9408 194.468 83.7097C195.076 81.6098 203.281 75.7299 209.157 74.8059C210.248 74.6379 213.354 74.1339 214.172 76.9059C214.234 77.1398 214.2 77.3885 214.078 77.5972C213.956 77.8059 213.756 77.9576 213.522 78.0189C213.288 78.0801 213.04 78.0459 212.831 77.9239C212.623 77.8018 212.471 77.6018 212.41 77.3679C212.2 76.5489 211.381 76.3179 209.493 76.6329C204.433 77.8872 199.829 80.5438 196.209 84.2977C196.14 84.4667 196.02 84.6099 195.866 84.7077C195.712 84.8055 195.531 84.8531 195.349 84.8437Z" fill="black"/>
<path d="M202.484 83.7937C202.267 83.79 202.058 83.708 201.896 83.5627C201.731 83.3906 201.638 83.1611 201.638 82.9222C201.638 82.6834 201.731 82.4539 201.896 82.2818C204.983 79.2017 208.992 77.2177 213.312 76.6329C216.544 76.1919 218.6 76.8429 219.125 78.4808C219.236 79.02 219.197 79.5795 219.012 80.098C218.827 80.6165 218.503 81.0741 218.076 81.4208C217.878 81.56 217.633 81.615 217.395 81.5736C217.157 81.5323 216.945 81.398 216.806 81.2003C216.667 81.0026 216.612 80.7576 216.653 80.5194C216.695 80.2811 216.829 80.069 217.026 79.9298C217.143 79.8104 217.234 79.6691 217.295 79.5141C217.356 79.3591 217.386 79.1935 217.383 79.0268C217.215 78.5018 215.851 78.1238 213.564 78.4388C209.688 78.9676 206.084 80.7268 203.281 83.4577C203.188 83.5776 203.066 83.6716 202.927 83.7304C202.787 83.7893 202.634 83.8111 202.484 83.7937Z" fill="black"/>
<path d="M327.114 294H18.8865C13.8775 294 9.07362 292.009 5.53172 288.464C1.98982 284.92 0 280.113 0 275.1V29.0267C0 24.0142 1.98982 19.207 5.53172 15.6626C9.07362 12.1183 13.8775 10.127 18.8865 10.127H46.6496C46.781 10.107 46.9153 10.1157 47.0431 10.1524C47.1709 10.1891 47.2893 10.253 47.3902 10.3398C47.491 10.4265 47.572 10.534 47.6275 10.655C47.683 10.7759 47.7117 10.9074 47.7117 11.0405C47.7117 11.1736 47.683 11.3051 47.6275 11.4261C47.572 11.547 47.491 11.6545 47.3902 11.7413C47.2893 11.828 47.1709 11.8919 47.0431 11.9286C46.9153 11.9654 46.781 11.974 46.6496 11.954H18.8865C14.3578 11.9596 10.0162 13.7623 6.81397 16.9668C3.61172 20.1713 1.81026 24.5159 1.80471 29.0477V275.1C1.81026 279.632 3.61172 283.977 6.81397 287.181C10.0162 290.386 14.3578 292.188 18.8865 292.194H327.114C331.642 292.188 335.984 290.386 339.186 287.181C342.388 283.977 344.19 279.632 344.195 275.1V29.0267C344.19 24.4949 342.388 20.1503 339.186 16.9458C335.984 13.7413 331.642 11.9386 327.114 11.933H92.6696C92.4219 11.9339 92.183 11.8415 92.0002 11.6742C91.8175 11.5069 91.7044 11.277 91.6833 11.03C91.6717 10.9146 91.6841 10.7981 91.7197 10.6877C91.7553 10.5773 91.8134 10.4755 91.8903 10.3887C91.9672 10.3019 92.0612 10.232 92.1664 10.1833C92.2716 10.1347 92.3858 10.1084 92.5017 10.106H327.114C332.123 10.106 336.926 12.0973 340.468 15.6416C344.01 19.186 346 23.9932 346 29.0057V275.1C346 280.113 344.01 284.92 340.468 288.464C336.926 292.009 332.123 294 327.114 294Z" fill="black"/>
<path d="M126.749 90.1146L127.316 90.3666C127.127 90.3666 126.938 90.1776 126.749 90.1146Z" fill="black"/>
<path d="M105.093 80.7908C104.827 72.3882 104.988 63.9775 105.575 55.5912H104.673C103.645 67.813 104.295 78.9428 104.295 91.1646L105.198 90.8286C105.198 87.3427 105.156 84.0037 105.093 80.7908Z" fill="black"/>
<path d="M122.132 75.7089L122.258 76.1919C122.594 77.7248 122.867 79.3418 123.14 81.0638C123.515 83.9131 124.14 86.7239 125.007 89.4637H125.91C124.441 85.4527 124.105 80.3708 123.14 76.1709C123.433 76.1092 123.72 76.0249 124 75.9189L123.895 75.4359L122.132 75.7089Z" fill="black"/>
<path d="M280.884 222.16L281.031 222.265L281.198 222.013L281.073 221.908L280.884 222.16Z" fill="black"/>
<path d="M327.113 11.009H92.6696V37.4476C92.5938 38.6789 92.0355 39.8306 91.1161 40.6524C90.1966 41.4741 88.9903 41.8997 87.7591 41.8365H84.7163C84.7163 46.1834 84.3385 52.0003 82.8066 50.8243C81.2747 49.6483 80.0786 44.7764 79.512 41.7735H51.7699C50.5352 41.8424 49.3234 41.4195 48.3994 40.5971C47.4753 39.7747 46.9141 38.6197 46.8384 37.3846V11.009H18.8865C16.5247 11.0118 14.1867 11.48 12.0058 12.387C9.82496 13.2939 7.84395 14.6219 6.17592 16.295C4.50789 17.9681 3.1855 19.9536 2.28426 22.1381C1.38302 24.3226 0.920581 26.6634 0.923339 29.0267V275.1C0.923339 279.873 2.81809 284.451 6.19076 287.826C9.56344 291.201 14.1378 293.097 18.9074 293.097H327.113C331.879 293.091 336.448 291.193 339.817 287.818C343.185 284.444 345.077 279.87 345.077 275.1V29.0267C345.079 26.6634 344.617 24.3226 343.716 22.1381C342.814 19.9536 341.492 17.9681 339.824 16.295C338.156 14.6219 336.175 13.2939 333.994 12.387C331.813 11.48 329.475 11.0118 327.113 11.009ZM313.389 96.8975L315.782 94.7975C315.801 94.7697 315.811 94.7368 315.811 94.7031C315.811 94.6693 315.801 94.6364 315.782 94.6086L313.893 92.0676C313.873 92.0478 313.86 92.0217 313.856 91.9937C313.853 91.9657 313.859 91.9373 313.873 91.9131C313.888 91.8888 313.91 91.8702 313.937 91.8601C313.963 91.8501 313.992 91.8492 314.019 91.8576L317.146 92.4036C317.167 92.419 317.193 92.4273 317.219 92.4273C317.245 92.4273 317.271 92.419 317.293 92.4036L318.111 89.3166C318.121 89.2942 318.137 89.275 318.157 89.2616C318.178 89.2481 318.202 89.241 318.226 89.241C318.251 89.241 318.275 89.2481 318.295 89.2616C318.316 89.275 318.332 89.2942 318.342 89.3166L319.874 92.1306C319.897 92.1513 319.927 92.1627 319.958 92.1627C319.989 92.1627 320.018 92.1513 320.041 92.1306L322.937 90.8286C322.962 90.8209 322.988 90.8196 323.013 90.8248C323.037 90.8301 323.061 90.8418 323.08 90.8588C323.099 90.8757 323.113 90.8974 323.121 90.9215C323.129 90.9457 323.131 90.9716 323.126 90.9966L321.993 93.8736C321.993 93.8736 321.993 93.9996 321.993 94.0416L324.826 95.5115C324.848 95.5246 324.866 95.5431 324.878 95.5651C324.891 95.5872 324.897 95.6122 324.897 95.6375C324.897 95.6629 324.891 95.6878 324.878 95.7099C324.866 95.732 324.848 95.7505 324.826 95.7635L321.762 96.6245C321.762 96.6245 321.762 96.6245 321.762 96.7715L322.371 99.9005C322.379 99.9274 322.378 99.9564 322.368 99.9828C322.358 100.009 322.34 100.031 322.315 100.046C322.291 100.061 322.263 100.067 322.235 100.063C322.207 100.059 322.181 100.047 322.161 100.026L319.58 98.1575C319.557 98.1368 319.527 98.1254 319.496 98.1254C319.465 98.1254 319.435 98.1368 319.412 98.1575L317.313 100.593C317.304 100.616 317.288 100.635 317.267 100.648C317.247 100.662 317.223 100.669 317.198 100.669C317.174 100.669 317.15 100.662 317.129 100.648C317.109 100.635 317.092 100.616 317.083 100.593L316.915 97.4225C316.915 97.3891 316.901 97.357 316.878 97.3334C316.854 97.3098 316.822 97.2965 316.789 97.2965H313.62C313.567 97.3271 313.504 97.3355 313.445 97.3197C313.386 97.304 313.336 97.2654 313.305 97.2125C313.275 97.1596 313.266 97.0967 313.282 97.0376C313.298 96.9785 313.336 96.9281 313.389 96.8975ZM313.137 152.694L314.837 154.332C314.837 154.332 314.837 154.332 314.963 154.332L316.747 152.778H316.915L316.663 155.129L318.992 155.549C319.01 155.558 319.025 155.572 319.035 155.588C319.046 155.605 319.051 155.624 319.051 155.644C319.051 155.664 319.046 155.683 319.035 155.7C319.025 155.716 319.01 155.73 318.992 155.738L316.999 157.019V157.145L318.111 159.245C318.111 159.245 318.111 159.413 317.985 159.392L315.761 158.636H315.635L314.711 160.736C314.711 160.736 314.543 160.736 314.522 160.736L313.704 158.51L311.417 159.161L311.312 159.014L312.55 156.914C312.55 156.914 312.55 156.914 312.55 156.788L310.64 155.402V155.234L312.991 154.94L312.886 152.568L313.137 152.694ZM295.93 36.6706L299.35 33.5206C299.376 33.4759 299.39 33.4252 299.39 33.3736C299.39 33.322 299.376 33.2713 299.35 33.2266L297.378 29.0267C297.357 28.9848 297.35 28.9376 297.357 28.8915C297.364 28.8454 297.385 28.8025 297.417 28.7685C297.449 28.7344 297.49 28.7107 297.535 28.7006C297.581 28.6905 297.628 28.6943 297.672 28.7117L302.099 30.0767C302.139 30.1057 302.187 30.1213 302.236 30.1213C302.285 30.1213 302.333 30.1057 302.372 30.0767L305.016 26.2548C305.038 26.2154 305.07 26.1825 305.109 26.1597C305.147 26.1368 305.192 26.1248 305.237 26.1248C305.282 26.1248 305.326 26.1368 305.364 26.1597C305.403 26.1825 305.435 26.2154 305.457 26.2548L306.464 30.7907C306.482 30.8399 306.513 30.8834 306.554 30.9167C306.595 30.9499 306.643 30.9717 306.695 30.9797L311.312 31.3577C311.357 31.3646 311.399 31.3837 311.435 31.4129C311.47 31.4421 311.496 31.4804 311.511 31.5235C311.526 31.5667 311.529 31.6131 311.52 31.6579C311.511 31.7027 311.49 31.7441 311.459 31.7777L308.038 34.9276C308.014 34.9691 308.002 35.0162 308.002 35.0641C308.002 35.112 308.014 35.1591 308.038 35.2006L310.011 39.4005C310.031 39.4425 310.038 39.4896 310.031 39.5357C310.024 39.5818 310.003 39.6247 309.972 39.6588C309.94 39.6929 309.899 39.7165 309.853 39.7266C309.808 39.7368 309.76 39.7329 309.717 39.7155L305.205 38.3715C305.166 38.3425 305.118 38.3269 305.069 38.3269C305.02 38.3269 304.972 38.3425 304.932 38.3715L302.288 42.1935C302.266 42.2329 302.235 42.2657 302.196 42.2886C302.157 42.3114 302.113 42.3235 302.068 42.3235C302.023 42.3235 301.979 42.3114 301.94 42.2886C301.901 42.2657 301.869 42.2329 301.848 42.1935L301.008 37.6576C300.99 37.6083 300.959 37.5648 300.918 37.5316C300.878 37.4983 300.829 37.4766 300.777 37.4686L296.161 37.0906C296.108 37.1005 296.054 37.0937 296.006 37.0711C295.958 37.0484 295.918 37.0111 295.893 36.9645C295.867 36.9179 295.857 36.8643 295.864 36.8115C295.87 36.7587 295.893 36.7094 295.93 36.6706ZM260.675 81.0848L262.585 80.6228L262.291 78.6698C262.291 78.6698 262.291 78.6698 262.417 78.6698L263.97 79.8878H264.075L265.418 78.4598H265.565V80.4338L267.516 80.5808V80.7278L265.984 81.9668L267.096 83.5837V83.7097L265.187 83.2897C265.187 83.2897 265.187 83.2897 265.082 83.2897L264.494 85.1587H264.347L263.487 83.3737L261.661 84.1087C261.661 84.1087 261.514 84.1087 261.556 83.9827L262.396 82.2188L260.696 81.2318C260.696 81.2318 260.591 81.0848 260.675 81.0848ZM244.349 136.251L246.636 134.151C246.655 134.123 246.665 134.09 246.665 134.056C246.665 134.023 246.655 133.99 246.636 133.962L245.314 131.127C245.302 131.099 245.298 131.068 245.302 131.037C245.306 131.006 245.319 130.978 245.338 130.954C245.358 130.93 245.383 130.912 245.412 130.902C245.442 130.892 245.473 130.89 245.503 130.896L248.483 131.82C248.511 131.839 248.544 131.849 248.577 131.849C248.611 131.849 248.644 131.839 248.672 131.82L250.455 129.258C250.466 129.231 250.485 129.207 250.509 129.191C250.534 129.174 250.562 129.166 250.592 129.166C250.621 129.166 250.65 129.174 250.674 129.191C250.698 129.207 250.717 129.231 250.728 129.258L251.421 132.303C251.432 132.335 251.451 132.364 251.477 132.386C251.503 132.408 251.534 132.423 251.568 132.429L254.673 132.702C254.708 132.692 254.746 132.696 254.778 132.713C254.811 132.729 254.836 132.757 254.849 132.791C254.862 132.825 254.862 132.863 254.849 132.897C254.836 132.931 254.811 132.958 254.778 132.975L252.491 135.075C252.472 135.103 252.462 135.136 252.462 135.169C252.462 135.203 252.472 135.236 252.491 135.264L253.813 138.099C253.83 138.126 253.837 138.158 253.835 138.189C253.832 138.221 253.819 138.251 253.798 138.275C253.776 138.299 253.748 138.315 253.717 138.321C253.685 138.327 253.653 138.323 253.624 138.309L250.644 137.385C250.616 137.366 250.584 137.356 250.55 137.356C250.516 137.356 250.483 137.366 250.455 137.385L248.546 140.01C248.535 140.037 248.516 140.06 248.492 140.077C248.467 140.093 248.439 140.102 248.409 140.102C248.38 140.102 248.351 140.093 248.327 140.077C248.303 140.06 248.284 140.037 248.273 140.01L247.58 136.944C247.567 136.913 247.546 136.886 247.521 136.865C247.495 136.843 247.466 136.827 247.434 136.818L244.349 136.503C244.331 136.487 244.317 136.468 244.307 136.446C244.297 136.424 244.292 136.401 244.292 136.377C244.292 136.353 244.297 136.329 244.307 136.308C244.317 136.286 244.331 136.267 244.349 136.251ZM217.803 39.0645L221.139 38.2875C221.159 38.2679 221.169 38.2415 221.169 38.214C221.169 38.1866 221.159 38.1602 221.139 38.1405L220.636 34.7386C220.63 34.7096 220.633 34.6795 220.645 34.6524C220.657 34.6252 220.676 34.6021 220.701 34.5863C220.726 34.5704 220.755 34.5624 220.785 34.5634C220.814 34.5643 220.843 34.5742 220.867 34.5916L223.553 36.6916C223.582 36.7154 223.619 36.7284 223.658 36.7284C223.696 36.7284 223.733 36.7154 223.763 36.6916L226.092 34.1716C226.105 34.1499 226.123 34.1319 226.145 34.1194C226.168 34.1069 226.192 34.1003 226.218 34.1003C226.243 34.1003 226.268 34.1069 226.29 34.1194C226.312 34.1319 226.331 34.1499 226.344 34.1716V37.8046C226.349 37.8398 226.366 37.872 226.393 37.8952C226.421 37.9183 226.455 37.9309 226.491 37.9306L229.911 38.2035C229.933 38.2166 229.951 38.2351 229.963 38.2572C229.976 38.2792 229.982 38.3042 229.982 38.3295C229.982 38.3549 229.976 38.3798 229.963 38.4019C229.951 38.424 229.933 38.4425 229.911 38.4555L227.225 40.5555C227.201 40.5853 227.188 40.6223 227.188 40.6605C227.188 40.6987 227.201 40.7357 227.225 40.7655L229.156 43.6004C229.169 43.6101 229.181 43.6224 229.19 43.6366C229.199 43.6508 229.205 43.6666 229.208 43.6832C229.211 43.6998 229.211 43.7167 229.207 43.7332C229.204 43.7496 229.197 43.7652 229.187 43.779C229.178 43.7927 229.165 43.8045 229.151 43.8135C229.137 43.8226 229.121 43.8287 229.104 43.8317C229.088 43.8346 229.071 43.8342 229.055 43.8306C229.038 43.8269 229.023 43.8201 229.009 43.8104L225.651 43.0545C225.625 43.0415 225.596 43.0348 225.567 43.0348C225.538 43.0348 225.509 43.0415 225.483 43.0545L224.476 46.3304C224.465 46.3577 224.446 46.3811 224.422 46.3976C224.398 46.414 224.369 46.4228 224.34 46.4228C224.31 46.4228 224.282 46.414 224.257 46.3976C224.233 46.3811 224.214 46.3577 224.203 46.3304L222.713 43.2435C222.685 43.2245 222.653 43.2144 222.619 43.2144C222.585 43.2144 222.552 43.2245 222.524 43.2435L219.335 44.5034C219.306 44.5174 219.274 44.5216 219.242 44.5155C219.211 44.5094 219.183 44.4933 219.161 44.4696C219.14 44.4459 219.127 44.4159 219.124 44.3841C219.121 44.3523 219.129 44.3205 219.146 44.2934L220.615 41.2065C220.628 41.1947 220.639 41.1801 220.646 41.1638C220.654 41.1475 220.657 41.1299 220.657 41.112C220.657 41.0941 220.654 41.0764 220.646 41.0601C220.639 41.0439 220.628 41.0293 220.615 41.0175L217.635 39.2955C217.614 39.2704 217.601 39.2389 217.6 39.2059C217.599 39.173 217.609 39.1407 217.628 39.1141C217.648 39.0874 217.675 39.0681 217.707 39.0591C217.739 39.0501 217.772 39.052 217.803 39.0645ZM152.288 31.9247C157.135 26.5068 162.34 28.5857 166.746 33.2056C175.308 29.6147 183.933 26.8008 185.234 29.3417C186.535 31.8827 179.526 35.4736 170.545 38.0985C163.563 40.1864 156.355 41.4204 149.077 41.7735C149.046 41.779 149.014 41.7742 148.986 41.76C148.957 41.7457 148.934 41.7228 148.92 41.6944C148.906 41.6661 148.902 41.634 148.907 41.6028C148.913 41.5717 148.928 41.5431 148.951 41.5215C148.972 38.0412 150.145 34.6661 152.288 31.9247ZM160.409 72.2859L158.835 71.7609L158.185 73.2939H158.059L157.492 71.74L155.897 72.181L156.779 70.753L155.436 69.787V69.661L157.093 69.451V67.792C157.093 67.792 157.093 67.792 157.219 67.792L158.394 68.947L159.633 67.855H159.758L159.591 69.514L161.227 69.808C161.227 69.808 161.227 69.913 161.227 69.934L159.842 70.837L160.409 72.2859ZM65.7459 86.3347L67.6555 85.8727L67.3617 83.9197C67.3617 83.9197 67.3617 83.7937 67.4876 83.9197L69.0405 85.1377L70.3835 83.7097H70.5304V85.6837L72.482 85.8307V85.9777L70.9501 87.2167L72.0623 88.8337V88.9596L70.1527 88.5397L69.5651 90.4296H69.4182L68.5578 88.6447C68.5578 88.6447 68.5578 88.6447 68.4529 88.6447L66.6272 89.3796C66.6272 89.3796 66.5013 89.3796 66.5223 89.2536L67.3617 87.4897L65.6619 86.5027C65.6619 86.5027 65.6619 86.3347 65.7459 86.3347ZM13.3884 39.9045L15.298 39.4425L15.0042 37.4896C15.0042 37.4896 15.0042 37.4896 15.1302 37.4896L16.683 38.7075C16.683 38.7075 16.683 38.7075 16.788 38.7075L18.131 37.2796H18.2779V39.2535L20.2295 39.4005V39.5475L18.6976 40.7865L19.8098 42.4035V42.5295L17.9002 42.1095C17.9002 42.1095 17.9002 42.1095 17.7952 42.1095L17.2916 44.1044H17.1447L16.2843 42.3195H16.1794L14.3537 43.0545C14.3537 43.0545 14.2278 43.0545 14.3537 42.9285L15.1931 41.1645L13.4933 40.1775C13.4933 40.1775 13.3045 39.9045 13.3884 39.9045ZM19.3271 139.926L17.8792 141.249C17.8698 141.268 17.865 141.29 17.865 141.312C17.865 141.334 17.8698 141.355 17.8792 141.375L18.7186 143.139C18.7278 143.157 18.7314 143.178 18.7289 143.199C18.7264 143.219 18.7179 143.238 18.7044 143.254C18.691 143.27 18.6732 143.281 18.6533 143.287C18.6334 143.292 18.6123 143.292 18.5927 143.286L16.725 142.698C16.725 142.698 16.725 142.698 16.5991 142.698L15.4869 144.294H15.319L14.8783 142.383L12.9267 142.215V142.047L14.3537 140.724V140.598L13.5353 138.834C13.5047 138.837 13.4742 138.827 13.4506 138.807C13.427 138.788 13.4122 138.759 13.4094 138.729C13.4066 138.698 13.4161 138.668 13.4358 138.644C13.4554 138.62 13.4837 138.606 13.5143 138.603L15.382 139.191C15.382 139.191 15.382 139.191 15.4869 139.191L16.5991 137.574C16.6077 137.556 16.6211 137.541 16.6378 137.531C16.6545 137.52 16.6738 137.515 16.6935 137.515C16.7132 137.515 16.7326 137.52 16.7493 137.531C16.766 137.541 16.7794 137.556 16.788 137.574L17.2077 139.485L19.1593 139.632C19.1954 139.609 19.239 139.602 19.2803 139.612C19.3216 139.622 19.3573 139.648 19.3796 139.684C19.4019 139.72 19.4088 139.764 19.399 139.805C19.3892 139.847 19.3633 139.882 19.3271 139.905V139.926ZM36.1151 267.54L32.6946 270.69C32.6684 270.731 32.6544 270.778 32.6544 270.827C32.6544 270.875 32.6684 270.923 32.6946 270.963L34.6671 275.163C34.6837 275.206 34.6883 275.253 34.6803 275.298C34.6723 275.343 34.6521 275.386 34.6218 275.42C34.5916 275.455 34.5524 275.481 34.5086 275.494C34.4648 275.508 34.418 275.51 34.3733 275.499L29.9455 274.134C29.906 274.105 29.8582 274.09 29.8091 274.09C29.7601 274.09 29.7123 274.105 29.6727 274.134L27.0286 277.956C27.0068 277.996 26.9749 278.029 26.9362 278.051C26.8974 278.074 26.8533 278.086 26.8083 278.086C26.7633 278.086 26.7191 278.074 26.6804 278.051C26.6416 278.029 26.6097 277.996 26.5879 277.956L25.5807 273.42C25.5647 273.37 25.5343 273.325 25.4933 273.292C25.4523 273.258 25.4025 273.237 25.3498 273.231L20.7331 272.832C20.6879 272.83 20.6443 272.815 20.6078 272.788C20.5713 272.761 20.5434 272.724 20.5278 272.682C20.5121 272.639 20.5093 272.593 20.5197 272.549C20.5301 272.504 20.5532 272.464 20.5862 272.433L23.9858 269.283C24.0165 269.241 24.0331 269.189 24.0331 269.136C24.0331 269.084 24.0165 269.032 23.9858 268.989L22.0132 264.79C21.9966 264.747 21.9921 264.7 22.0001 264.655C22.008 264.609 22.0283 264.567 22.0585 264.533C22.0888 264.498 22.1279 264.472 22.1717 264.458C22.2155 264.444 22.2623 264.443 22.307 264.454L26.7348 265.839C26.7854 265.856 26.8402 265.855 26.89 265.836C26.9397 265.817 26.9813 265.781 27.0076 265.735L29.6517 261.934C29.6702 261.893 29.6997 261.859 29.7369 261.835C29.7741 261.811 29.8174 261.799 29.8616 261.799C29.9058 261.799 29.9491 261.811 29.9863 261.835C30.0235 261.859 30.053 261.893 30.0714 261.934L31.0997 266.47C31.1167 266.518 31.1478 266.559 31.189 266.589C31.2302 266.619 31.2796 266.636 31.3305 266.638L35.9472 267.036C36.0112 267.009 36.0837 267.007 36.1486 267.033C36.2135 267.059 36.2656 267.109 36.2935 267.173C36.3213 267.237 36.3226 267.31 36.297 267.374C36.2714 267.439 36.2211 267.492 36.1571 267.519L36.1151 267.54ZM47.3211 191.711L44.614 194.21C44.5885 194.243 44.5746 194.283 44.5746 194.325C44.5746 194.367 44.5885 194.408 44.614 194.441L46.1879 197.78C46.2081 197.814 46.2172 197.853 46.214 197.892C46.2108 197.931 46.1954 197.969 46.1699 197.999C46.1445 198.029 46.1103 198.05 46.0721 198.06C46.034 198.07 45.9937 198.067 45.957 198.053L42.4316 196.961C42.3965 196.94 42.3567 196.93 42.3162 196.93C42.2756 196.93 42.2358 196.94 42.2007 196.961L40.1022 200.006C40.0834 200.036 40.0572 200.061 40.026 200.079C39.9947 200.096 39.9596 200.105 39.9239 200.105C39.8881 200.105 39.853 200.096 39.8218 200.079C39.7906 200.061 39.7643 200.036 39.7455 200.006L38.9271 196.394C38.9219 196.353 38.902 196.315 38.8711 196.288C38.8401 196.261 38.8003 196.246 38.7592 196.247L35.0868 195.932C35.0514 195.925 35.0184 195.909 34.9908 195.886C34.9633 195.863 34.9421 195.833 34.9295 195.799C34.9168 195.765 34.9131 195.729 34.9186 195.693C34.9241 195.658 34.9387 195.624 34.9609 195.596L37.689 193.097C37.7092 193.062 37.7199 193.022 37.7199 192.981C37.7199 192.941 37.7092 192.901 37.689 192.866L36.1151 189.527C36.0949 189.493 36.0858 189.454 36.089 189.414C36.0922 189.375 36.1076 189.338 36.1331 189.308C36.1585 189.278 36.1927 189.256 36.2309 189.247C36.269 189.237 36.3093 189.24 36.3459 189.254L39.8714 190.346C39.9025 190.367 39.939 190.378 39.9763 190.378C40.0137 190.378 40.0502 190.367 40.0813 190.346L42.1798 187.301C42.1956 187.27 42.2197 187.244 42.2493 187.226C42.2789 187.208 42.313 187.199 42.3476 187.199C42.3823 187.199 42.4163 187.208 42.4459 187.226C42.4756 187.244 42.4996 187.27 42.5155 187.301L43.3339 190.913C43.3391 190.954 43.359 190.991 43.3899 191.018C43.4209 191.045 43.4607 191.06 43.5018 191.06L47.1952 191.375C47.2339 191.369 47.2736 191.375 47.3087 191.392C47.3437 191.41 47.3725 191.438 47.391 191.473C47.4094 191.507 47.4167 191.547 47.4116 191.586C47.4066 191.625 47.3897 191.661 47.363 191.69L47.3211 191.711ZM107.947 270.711L104.358 271.53C104.317 271.536 104.28 271.555 104.253 271.586C104.226 271.617 104.211 271.657 104.211 271.698L103.897 275.394C103.894 275.432 103.88 275.468 103.856 275.498C103.833 275.528 103.801 275.55 103.764 275.562C103.728 275.573 103.689 275.573 103.653 275.562C103.617 275.551 103.585 275.529 103.561 275.499L101.043 272.79C101.013 272.767 100.976 272.754 100.938 272.754C100.899 272.754 100.862 272.767 100.833 272.79L97.4751 274.365C97.442 274.379 97.4056 274.383 97.3704 274.376C97.3352 274.37 97.3024 274.354 97.276 274.33C97.2496 274.305 97.2307 274.274 97.2213 274.24C97.212 274.205 97.2127 274.169 97.2233 274.134L98.3145 270.585C98.3329 270.554 98.3426 270.517 98.3426 270.48C98.3426 270.444 98.3329 270.407 98.3145 270.375L95.2717 268.275C95.2347 268.263 95.2025 268.238 95.1798 268.206C95.1571 268.174 95.1449 268.136 95.1449 268.097C95.1449 268.058 95.1571 268.019 95.1798 267.987C95.2025 267.955 95.2347 267.931 95.2717 267.918L98.8811 267.099C98.9219 267.094 98.9594 267.074 98.9865 267.043C99.0135 267.012 99.0283 266.973 99.028 266.931L99.3428 263.257C99.3412 263.217 99.3522 263.178 99.3742 263.145C99.3962 263.111 99.428 263.086 99.4652 263.072C99.5024 263.058 99.543 263.056 99.5813 263.067C99.6196 263.077 99.6536 263.1 99.6785 263.131L102.176 265.861C102.212 265.876 102.251 265.884 102.291 265.884C102.331 265.884 102.37 265.876 102.407 265.861L105.743 264.286C105.777 264.265 105.816 264.256 105.856 264.259C105.895 264.263 105.932 264.278 105.962 264.304C105.992 264.329 106.013 264.363 106.023 264.401C106.033 264.44 106.03 264.48 106.016 264.517L104.925 268.044C104.901 268.074 104.888 268.111 104.888 268.149C104.888 268.188 104.901 268.225 104.925 268.254L107.968 270.354C108.004 270.369 108.035 270.395 108.056 270.429C108.077 270.462 108.087 270.501 108.085 270.54C108.082 270.58 108.068 270.617 108.043 270.648C108.018 270.679 107.985 270.701 107.947 270.711ZM165.047 244.063L162.948 245.344C162.948 245.344 162.948 245.344 162.948 245.47L164.081 247.57C164.081 247.57 164.081 247.738 163.955 247.696L161.71 246.94L160.766 249.04C160.766 249.04 160.619 249.04 160.598 249.04L159.779 246.835H159.654L157.387 247.465C157.387 247.465 157.219 247.465 157.387 247.318L158.604 245.218V245.071L156.695 243.685V243.517L159.045 243.223L158.94 240.85H159.108L160.787 242.488C160.808 242.503 160.834 242.512 160.86 242.512C160.886 242.512 160.912 242.503 160.934 242.488L162.717 240.913C162.717 240.913 162.885 240.913 162.864 240.913L162.633 243.265C162.624 243.285 162.619 243.306 162.619 243.328C162.619 243.35 162.624 243.371 162.633 243.391L164.963 243.811C164.963 243.811 165.194 244.021 165.131 244.063H165.047ZM223.364 278.397L221.265 279.678V279.804L222.378 281.904C222.387 281.923 222.39 281.944 222.388 281.964C222.385 281.985 222.377 282.004 222.363 282.02C222.35 282.035 222.332 282.047 222.312 282.052C222.292 282.058 222.271 282.058 222.252 282.051L220.027 281.295H219.901L218.978 283.395C218.978 283.395 218.81 283.395 218.789 283.395L217.971 281.169L215.683 281.799V281.652L216.921 279.552V279.426L215.012 278.04C214.994 278.032 214.979 278.018 214.969 278.002C214.958 277.985 214.953 277.965 214.953 277.946C214.953 277.926 214.958 277.907 214.969 277.89C214.979 277.873 214.994 277.86 215.012 277.851L217.362 277.557V275.205H217.53L219.23 276.864C219.23 276.864 219.23 276.864 219.356 276.864L221.139 275.31H221.307L221.055 277.662V277.767L223.385 278.187C223.413 278.19 223.438 278.204 223.456 278.225C223.474 278.247 223.482 278.275 223.479 278.303C223.476 278.331 223.463 278.356 223.441 278.374C223.419 278.392 223.392 278.4 223.364 278.397ZM262.165 281.862L259.038 278.565L257.968 277.494C257.38 276.885 254.506 273.462 251.987 270.438L248.609 266.449L248.315 266.743L191.551 225.457C186.389 222.255 180.328 220.818 174.28 221.362C152.917 223.462 123.916 226.381 110.087 222.286C103.458 220.095 97.6915 215.861 93.6139 210.19C89.4124 204.526 86.2114 198.184 84.1497 191.438L83.625 191.585H83.3522C83.1815 191.578 83.0154 191.527 82.8696 191.438C82.7565 191.369 82.6613 191.273 82.592 191.16C82.5227 191.047 82.4812 190.919 82.4709 190.787C78.3788 159.581 81.2537 138.75 82.7647 130.938C76.679 137.616 61.0872 153.639 52.4414 153.303C51.8845 153.284 51.3333 153.185 50.8046 153.009C38.6333 148.809 26.483 101.412 25.9584 99.3965C25.9361 99.277 25.9376 99.1542 25.9628 99.0353C25.988 98.9164 26.0364 98.8036 26.1053 98.7035C26.2047 98.5713 26.3448 98.4754 26.504 98.4305C25.9164 96.6245 21.4047 92.1306 17.5014 89.7576C15.403 88.5396 13.1786 87.6577 11.8985 86.7967C11.6863 86.6475 11.5132 86.4494 11.3936 86.2191C11.2741 85.9889 11.2117 85.7332 11.2117 85.4737C11.2117 85.2142 11.2741 84.9586 11.3936 84.7283C11.5132 84.498 11.6863 84.2999 11.8985 84.1507L11.6467 83.7937C11.3832 83.5535 11.1852 83.2501 11.0714 82.912C10.9576 82.574 10.9317 82.2126 10.9961 81.8618C11.3948 80.6438 13.3674 80.3498 15.8227 80.7488V80.2658C16.3892 78.2918 18.7815 78.7748 19.8518 78.9638C25.6226 80.0138 33.1772 86.1037 33.5969 87.5317L33.9327 87.9097C34.5935 87.4222 35.2956 86.9936 36.0312 86.6287C36.262 86.1247 33.5759 80.3288 36.304 79.7198C37.3322 79.5098 38.2766 80.6438 38.6543 81.4418C39.4097 82.9747 41.1305 88.6447 39.4097 98.0105C39.5697 98.0035 39.7266 98.0559 39.8504 98.1575C39.9758 98.2509 40.0766 98.3734 40.1442 98.5145C45.4744 109.455 53.4697 125.604 55.5891 129.237C59.1146 125.688 74.3707 107.985 80.4563 100.992L81.4006 99.9215C85.3038 95.4065 98.1886 95.2385 101.273 95.2175C101.622 93.865 102.35 92.6407 103.372 91.6896C103.372 88.0147 103.372 84.4447 103.372 80.9168C103.067 72.432 103.193 63.9372 103.75 55.4652C102.998 55.6575 102.208 55.6376 101.467 55.4078C100.726 55.178 100.064 54.7472 99.5526 54.1633C97.4541 51.4963 100.77 42.1095 105.68 46.3724C106.352 41.6055 106.541 37.0066 110.36 33.7726C123.161 23.2728 133.443 43.1175 135.542 50.9083C137.388 58.1742 127.148 74.5539 124.189 75.7089H123.979C124.336 77.2629 124.63 79.0058 124.902 80.6858C125.278 83.9866 126.097 87.2216 127.337 90.3036C128.973 91.1348 130.227 92.5631 130.841 94.2936C133.695 94.4406 143.6 94.9865 147.021 96.5615C151.574 98.6615 160.598 110.82 168.677 122.076C169.999 123.903 171.279 125.667 171.951 126.549C174.049 124.197 180.555 113.949 188.403 94.6295C188.451 94.4578 188.556 94.3078 188.701 94.2046C188.846 94.1014 189.023 94.0512 189.2 94.0626C187.836 84.9277 189.641 79.1528 190.417 77.6619C190.816 76.8639 191.781 75.7509 192.81 75.9819C195.517 76.5909 192.684 82.3868 192.81 82.8908C192.81 83.0588 193.796 83.3107 194.656 84.0037L195.244 83.8567C195.685 82.4288 203.386 76.5279 209.199 75.6039C210.269 75.4359 212.662 75.0159 213.186 76.9899V77.4728C215.662 77.1369 217.614 77.4729 217.992 78.6908C218.047 79.042 218.013 79.4015 217.892 79.7358C217.771 80.07 217.567 80.368 217.299 80.6018L216.712 80.8118C216.983 80.9156 217.22 81.0926 217.398 81.3232C217.575 81.5538 217.684 81.8289 217.715 82.1181C217.745 82.4073 217.695 82.6992 217.57 82.9616C217.445 83.224 217.249 83.4466 217.005 83.6047C215.704 84.5077 213.396 85.2637 211.339 86.4397C207.875 88.5724 204.859 91.3615 202.463 94.6505C202.553 94.6948 202.632 94.7595 202.694 94.8395C202.778 94.9479 202.836 95.075 202.862 95.2102C202.887 95.3453 202.88 95.4847 202.841 95.6165C202.337 97.5695 190.417 143.307 178.582 148.263C177.588 148.667 176.528 148.88 175.455 148.893C164.837 149.061 149.245 132.429 144.376 126.948C143.957 149.334 149.077 158.867 152.77 165.881C153.505 167.246 154.176 168.485 154.743 169.703C198.035 154.268 216.103 155.948 232.387 165.608C246.867 174.197 285.164 202.127 290.642 206.117L293.034 204.542C297.231 201.875 305.058 196.898 309.423 191.942C310.257 190.85 311.305 189.94 312.503 189.268C313.701 188.597 315.024 188.177 316.39 188.036C317.443 188.014 318.489 188.217 319.459 188.629C320.428 189.042 321.299 189.656 322.014 190.43L326.19 193.202L297.881 234.739L294.104 232.156L293.579 231.778L292.845 231.253C292.152 230.77 288.648 227.977 285.668 225.541C283.842 224.071 281.975 222.559 281.303 222.055L281.114 222.307H280.905L216.082 195.302C214.404 194.409 212.553 193.888 210.655 193.776C208.757 193.663 206.858 193.962 205.086 194.651V194.777C207.553 196.436 209.846 198.343 211.927 200.468L260.906 252.715C261.514 252.442 262.333 252.106 263.592 251.623C268.23 249.796 276.854 246.415 282.122 242.32C283.154 241.413 284.36 240.724 285.665 240.294C286.97 239.865 288.349 239.704 289.718 239.821C290.743 240.013 291.717 240.415 292.58 241C293.442 241.585 294.176 242.342 294.734 243.223L298.07 246.625L262.165 281.862ZM328.624 243.706L327.092 244.945V245.05L328.184 246.667V246.793L326.274 246.373H326.169L325.603 248.263H325.435L324.574 246.499C324.574 246.499 324.574 246.499 324.469 246.499L322.644 247.234C322.644 247.234 322.518 247.234 322.644 247.108L323.504 245.344C323.504 245.344 323.504 245.344 323.504 245.239L321.804 244.252V244.084L323.714 243.643L323.42 241.69H323.567L325.099 242.908L326.442 241.48H326.589V243.454L328.54 243.601L328.666 243.706H328.624Z" fill="black"/>
<path d="M104.085 55.4232H104.673V55.2553L104.085 55.4232Z" fill="black"/>
<path d="M104.295 91.0386C104.295 78.8168 103.645 67.687 104.673 55.4653L103.75 55.4652C103.168 63.9079 103.014 72.3746 103.288 80.8328C103.288 84.3607 103.288 87.9307 103.288 91.6056C103.454 91.4484 103.629 91.3011 103.813 91.1646L104.295 91.0386Z" fill="black"/>
<path d="M125.91 89.2956H125.007L125.154 89.6736L126.204 89.8626L126.749 90.0307C126.938 90.0307 127.127 90.1986 127.316 90.2826C126.094 87.212 125.29 83.9914 124.923 80.7068C124.651 79.0268 124.357 77.2838 124 75.7299C123.72 75.8359 123.433 75.9202 123.14 75.9819C124.105 80.2028 124.441 85.2847 125.91 89.2956Z" fill="black"/>
<path d="M286.717 224.092C289.592 226.423 293.16 229.3 293.81 229.741L294.062 229.93L320.398 191.27C319.373 190.383 318.061 189.898 316.705 189.905C315.584 190.043 314.503 190.407 313.526 190.973C312.548 191.54 311.696 192.298 311.018 193.202C306.485 198.431 298.427 203.492 294.23 206.222C292.929 207.062 291.691 207.839 291.418 208.091L282.541 220.69C283.276 221.32 284.472 222.286 286.717 224.092Z" fill="black"/>
<path d="M260.927 277.956L262.228 279.279L295.426 246.52L293.978 245.05L260.927 277.956Z" fill="black"/>
<path d="M297.357 232.177L323.609 193.622L321.909 192.467L295.825 231.127L297.357 232.177Z" fill="black"/>
<path d="M84.8632 126.969C85.0433 127.07 85.1845 127.228 85.2644 127.418C85.3442 127.608 85.3581 127.82 85.3039 128.019C85.3039 128.25 79.1972 150.531 84.1497 189.527L152.917 169.577C152.484 168.695 152.001 167.771 151.469 166.805C147.482 159.371 142.005 149.166 142.866 124.701C142.873 124.575 142.907 124.452 142.965 124.34C143.022 124.228 143.103 124.129 143.201 124.05C143.289 123.971 143.392 123.912 143.504 123.876C143.616 123.84 143.735 123.827 143.852 123.84C144.094 123.862 144.319 123.974 144.481 124.155C144.691 124.407 164.543 147.927 175.959 147.15C176.681 147.097 177.39 146.927 178.057 146.646C188.109 142.446 199.042 103.407 200.973 96.2465L189.851 95.8685C181.772 115.671 173.713 128.691 171.867 128.691C171.237 128.691 171.237 128.691 167.229 123.105C161.899 115.692 150.798 100.257 146.244 98.1785C142.656 96.5405 130.149 96.0785 130.023 96.0785C129.9 96.079 129.778 96.0529 129.666 96.0022C129.553 95.9515 129.453 95.8773 129.372 95.7845C129.292 95.6971 129.23 95.5944 129.19 95.4826C129.151 95.3707 129.134 95.252 129.141 95.1335C128.944 94.3753 128.568 93.6751 128.047 93.0908C127.525 92.5065 126.871 92.055 126.141 91.7736H125.805C123.263 91.2722 120.673 91.0539 118.082 91.1226C113.664 91.0831 109.26 91.634 104.988 92.7606C103.98 93.4867 103.283 94.5666 103.036 95.7845L102.784 96.4985C102.717 96.6718 102.598 96.8206 102.445 96.9255C102.291 97.0304 102.11 97.0866 101.924 97.0865H101.022C96.237 97.0865 85.7445 97.7375 82.7857 101.286L81.8623 102.357C56.5754 131.4 56.1977 131.4 55.4842 131.421C54.7707 131.421 53.8474 130.497 38.8851 99.7535L27.9729 100.047C29.8826 107.292 41.0466 147.78 51.3502 151.287C51.8244 151.441 52.3203 151.519 52.8191 151.518C60.7724 151.518 77.5184 134.235 83.688 127.158C83.7694 127.059 83.8719 126.979 83.9881 126.924C84.1043 126.87 84.2312 126.842 84.3595 126.843C84.5349 126.845 84.7073 126.889 84.8632 126.969Z" fill="black"/>
<path d="M289.341 241.501C288.221 241.419 287.096 241.562 286.033 241.923C284.969 242.284 283.989 242.854 283.15 243.601C277.673 247.801 268.901 251.308 264.264 253.156C263.206 253.535 262.17 253.97 261.158 254.458L249.994 265.209C250.581 265.86 251.568 267.015 253.393 269.199C255.786 272.034 258.744 275.499 259.29 276.15L259.521 276.381L292.719 243.601C291.9 242.497 290.692 241.747 289.341 241.501Z" fill="black"/>
<path d="M117.474 89.2747C116.173 89.2747 114.851 89.2747 113.592 89.4637C114.851 89.3587 116.173 89.2957 117.474 89.2747Z" fill="white"/>
<path d="M117.831 89.2747C118.194 89.2536 118.558 89.2536 118.922 89.2747C118.565 89.2747 118.208 89.2536 117.831 89.2747Z" fill="white"/>
<path d="M105.198 90.7236C106.577 90.3569 107.979 90.0832 109.395 89.9046C107.982 90.0905 106.58 90.357 105.198 90.7026V90.7236Z" fill="white"/>
<path d="M104.295 91.0386C104.589 90.9139 104.89 90.8087 105.198 90.7236L104.295 91.0386Z" fill="white"/>
<path d="M144.523 127.011C149.392 132.492 164.984 149.124 175.602 148.956C164.984 149.103 149.392 132.492 144.523 127.011Z" fill="white"/>
<path d="M81.4006 99.9215C85.3038 95.4065 98.1886 95.2385 101.273 95.2175C98.1676 95.2175 85.3038 95.4065 81.4006 99.9215Z" fill="white"/>
<path d="M188.382 94.6926C180.534 114.075 173.944 124.26 171.93 126.612C173.944 124.281 180.534 114.075 188.382 94.6926Z" fill="white"/>
<path d="M25.8954 99.4175C25.879 99.2904 25.8892 99.1613 25.9253 99.0384C25.9615 98.9155 26.0227 98.8014 26.1053 98.7035C26.0213 98.8123 25.9626 98.9386 25.9336 99.073C25.9045 99.2074 25.9058 99.3466 25.9374 99.4805C26.462 101.58 38.5284 148.935 50.7836 153.093C38.5703 148.872 26.4201 101.433 25.8954 99.4175Z" fill="white"/>
<path d="M39.9344 98.0945C40.0645 98.1828 40.1665 98.3067 40.2282 98.4515C40.1606 98.3104 40.0597 98.1879 39.9344 98.0945Z" fill="white"/>
<path d="M39.4937 97.9475C39.6519 97.9516 39.8053 98.0028 39.9344 98.0945C39.8106 97.9929 39.6537 97.9405 39.4937 97.9475Z" fill="white"/>
<path d="M82.4079 190.808C78.3159 159.602 81.2118 138.771 82.7017 130.959C81.1908 138.771 78.3159 159.602 82.4079 190.808Z" fill="white"/>
<path d="M104.001 91.1646C103.818 91.3011 103.643 91.4484 103.477 91.6056C103.75 91.4586 103.75 91.3116 104.001 91.1646Z" fill="white"/>
<path d="M126.12 91.8366C126.85 92.118 127.504 92.5695 128.026 93.1538C128.547 93.7381 128.923 94.4383 129.12 95.1965C129.113 95.315 129.13 95.4337 129.17 95.5456C129.209 95.6574 129.271 95.7601 129.351 95.8475C129.432 95.9403 129.532 96.0145 129.645 96.0652C129.757 96.1159 129.879 96.142 130.002 96.1415C130.128 96.1415 142.593 96.6245 146.223 98.2415C150.756 100.341 161.857 115.755 167.208 123.168C161.878 115.755 150.777 100.32 146.223 98.2415C142.614 96.6035 130.107 96.1415 129.981 96.1415C129.858 96.142 129.736 96.1159 129.624 96.0652C129.511 96.0145 129.411 95.9403 129.33 95.8475C129.177 95.6654 129.096 95.4343 129.099 95.1965C128.902 94.4412 128.53 93.7432 128.012 93.1593C127.494 92.5754 126.846 92.1222 126.12 91.8366Z" fill="white"/>
<path d="M83.667 127.179C77.4974 134.256 60.7515 151.434 52.7982 151.539C60.7515 151.539 77.4974 134.256 83.667 127.179Z" fill="white"/>
<path d="M178.036 146.646C188.088 142.446 199.021 103.407 200.952 96.2465C199.021 103.407 188.088 142.425 178.036 146.646Z" fill="white"/>
<path d="M55.4842 131.442C54.7707 131.442 53.8474 130.497 38.8851 99.7744C53.8264 130.518 54.7498 131.463 55.4842 131.442Z" fill="white"/>
<path d="M26.1053 98.7035C26.1867 98.596 26.2912 98.5081 26.4111 98.4463C26.5309 98.3846 26.663 98.3504 26.7978 98.3465H27.4064C27.4064 98.3465 27.4064 98.3465 27.4064 98.2205C26.7768 96.1205 22.0132 91.4586 17.9841 89.0016C17.0192 88.4309 16.0245 87.9122 15.0042 87.4477C14.098 87.0794 13.2271 86.6296 12.4021 86.1037C12.2984 86.0168 12.2161 85.9073 12.1615 85.7834C12.1069 85.6596 12.0816 85.5249 12.0873 85.3897C12.0858 85.3031 12.1085 85.2178 12.1531 85.1436C12.1976 85.0693 12.2621 85.0091 12.3392 84.9697C12.8054 84.7578 13.3248 84.692 13.8291 84.7807C17.5787 85.6826 21.0646 87.4519 24.0068 89.9466C24.0892 90.0337 24.1884 90.103 24.2984 90.1504C24.4085 90.1978 24.527 90.2223 24.6468 90.2223C24.7666 90.2223 24.8852 90.1978 24.9952 90.1504C25.1053 90.103 25.2045 90.0337 25.2869 89.9466C25.3713 89.8627 25.4382 89.7629 25.4839 89.653C25.5296 89.5431 25.5532 89.4252 25.5532 89.3061C25.5532 89.1871 25.5296 89.0692 25.4839 88.9593C25.4382 88.8494 25.3713 88.7496 25.2869 88.6657C22.1355 85.8697 18.3445 83.8936 14.2488 82.9118C13.3248 82.7559 12.3752 82.9032 11.5417 83.3318C11.2065 83.5228 10.9261 83.7971 10.7277 84.1282C10.5292 84.4592 10.4193 84.8358 10.4085 85.2217C10.385 85.6568 10.4683 86.0909 10.6513 86.4863C10.8342 86.8817 11.1111 87.2262 11.4578 87.4897C12.3508 88.0903 13.2995 88.6037 14.2908 89.0226C15.2141 89.4846 16.2004 89.9466 17.1027 90.4926C21.1318 92.9286 25.3288 97.3175 25.7276 98.6825C25.7877 98.8455 25.8889 98.9901 26.0213 99.1025C26.0153 98.9645 26.0441 98.8273 26.1053 98.7035Z" fill="black"/>
<path d="M40.2282 98.4515L40.3331 98.6405C41.886 91.5846 40.3331 82.4078 39.5147 80.9168C38.2766 78.8168 37.0175 78.5858 36.22 78.8168C35.906 78.8762 35.6076 79.0001 35.3439 79.1809C35.0802 79.3616 34.8569 79.5952 34.6881 79.8668C33.8487 81.2318 34.3524 83.3318 34.9819 85.5367C35.0197 85.7375 35.0759 85.9343 35.1498 86.1247C34.5032 86.3926 33.9071 86.769 33.3871 87.2377C32.7706 87.7799 32.3067 88.4743 32.0416 89.2517C31.7765 90.029 31.7195 90.8623 31.8761 91.6686C31.8927 91.7872 31.9324 91.9013 31.993 92.0046C32.0536 92.1078 32.134 92.1981 32.2295 92.2702C32.325 92.3424 32.4337 92.395 32.5495 92.4251C32.6653 92.4552 32.7859 92.4621 32.9044 92.4456C33.0229 92.429 33.137 92.3893 33.2401 92.3286C33.3433 92.268 33.4335 92.1876 33.5056 92.092C33.5777 91.9965 33.6303 91.8876 33.6603 91.7717C33.6904 91.6559 33.6974 91.5352 33.6809 91.4166C33.5704 90.9046 33.5977 90.3724 33.7599 89.8743C33.9221 89.3763 34.2134 88.9302 34.6042 88.5817C35.0409 88.2072 35.5375 87.909 36.0731 87.6997C36.4429 87.5865 36.7572 87.3394 36.9545 87.0067C37.1434 86.5657 36.9545 86.1247 36.7237 85.0327C36.4928 83.9407 35.7584 81.6098 36.241 80.8328C36.272 80.7744 36.317 80.7247 36.3719 80.6881C36.4269 80.6514 36.4901 80.629 36.5558 80.6228C36.8076 80.6228 37.3322 80.8748 37.9618 81.9248C39.3727 87.1551 39.6234 92.631 38.6963 97.9685H39.4727C39.6325 97.9639 39.79 98.0076 39.9247 98.0937C40.0594 98.1798 40.1651 98.3045 40.2282 98.4515Z" fill="black"/>
<path d="M38.2556 102.063C38.3737 102.083 38.4942 102.083 38.6123 102.063C38.7929 102.064 38.9694 102.01 39.119 101.909C39.2686 101.808 39.3845 101.664 39.4517 101.496C39.4517 101.496 39.4517 101.265 39.4517 101.16L38.7592 99.7115H38.0457L37.668 100.803C37.6112 100.923 37.5816 101.055 37.5813 101.187C37.5809 101.32 37.6098 101.451 37.6659 101.572C37.722 101.692 37.804 101.798 37.9059 101.883C38.0078 101.968 38.1272 102.03 38.2556 102.063Z" fill="black"/>
<path d="M217.194 80.0138C216.478 79.7752 215.718 79.7034 214.97 79.8038C210.891 80.697 207.093 82.5791 203.911 85.2847C203.735 85.449 203.633 85.6763 203.625 85.9165C203.617 86.1567 203.705 86.3903 203.869 86.5657C204.033 86.7411 204.26 86.8441 204.5 86.852C204.74 86.8599 204.974 86.772 205.149 86.6077C208.075 84.1682 211.532 82.4492 215.243 81.5888C215.708 81.5276 216.181 81.5707 216.628 81.7148C216.984 81.8408 217.047 82.0298 217.047 82.1558C217.06 82.301 217.038 82.447 216.983 82.5821C216.928 82.7171 216.843 82.8373 216.733 82.9328C215.91 83.4384 215.047 83.874 214.151 84.2347C213.123 84.6722 212.121 85.1701 211.151 85.7257C207.407 87.9435 204.18 90.9363 201.686 94.5036L202.148 94.5035C202.283 94.5075 202.415 94.5417 202.535 94.6034C202.655 94.6652 202.759 94.7531 202.841 94.8606C202.925 94.9689 202.983 95.096 203.008 95.2312C203.034 95.3664 203.027 95.5057 202.987 95.6375V95.9525C202.987 95.9525 203.134 95.8265 203.155 95.7425C205.442 92.3071 208.477 89.4351 212.032 87.3427C212.955 86.8192 213.908 86.3494 214.886 85.9357C215.891 85.5338 216.853 85.0344 217.761 84.4447C218.132 84.1435 218.418 83.7507 218.591 83.3051C218.764 82.8595 218.818 82.3766 218.747 81.9038C218.682 81.4781 218.504 81.0779 218.23 80.7453C217.957 80.4127 217.599 80.16 217.194 80.0138Z" fill="black"/>
<path d="M189.263 97.2965C189.426 97.4206 189.625 97.487 189.83 97.4855H190.04C190.273 97.4212 190.472 97.27 190.597 97.0629C190.722 96.8559 190.763 96.6088 190.711 96.3725C190.7 96.2468 190.7 96.1203 190.711 95.9945H189.788L189.263 97.2965Z" fill="black"/>
<path d="M189.242 94.1255L190.229 94.1256C189.077 88.804 189.411 83.2681 191.194 78.1238C191.53 77.4728 192.18 76.8009 192.579 76.9059C192.714 76.9293 192.834 77.0047 192.915 77.1159C193.376 77.9348 192.684 80.2238 192.327 81.3158C191.97 82.4078 191.865 82.8488 192.054 83.2897C192.253 83.6212 192.567 83.8678 192.936 83.9827C193.375 84.1881 193.79 84.4416 194.174 84.7387C194.62 85.0891 194.956 85.5605 195.142 86.0966C195.328 86.6327 195.356 87.211 195.223 87.7627C195.202 87.8814 195.205 88.0032 195.232 88.1207C195.259 88.2383 195.309 88.3493 195.379 88.4472C195.45 88.545 195.539 88.6278 195.642 88.6906C195.745 88.7533 195.859 88.7949 195.978 88.8127C196.096 88.8335 196.216 88.8303 196.333 88.8032C196.449 88.7761 196.558 88.7257 196.654 88.655C196.751 88.5843 196.831 88.4949 196.892 88.392C196.952 88.2892 196.992 88.1751 197.007 88.0567C197.193 87.1857 197.132 86.2801 196.832 85.4417C196.531 84.6033 196.003 83.8653 195.307 83.3107C194.865 82.9705 194.387 82.6817 193.88 82.4498C193.88 82.2608 194.006 82.0718 194.069 81.8408C194.914 80.0777 195.064 78.0606 194.489 76.1919C194.325 75.9178 194.106 75.681 193.846 75.4966C193.586 75.3121 193.29 75.1842 192.978 75.1209C192.262 75.067 191.548 75.2412 190.937 75.6184C190.326 75.9956 189.851 76.5565 189.578 77.2208C187.593 82.7485 187.208 88.7244 188.466 94.4616C188.543 94.33 188.659 94.2264 188.799 94.166C188.939 94.1055 189.094 94.0914 189.242 94.1255Z" fill="black"/>
</svg>
