<svg width="18" height="22" viewBox="0 0 18 22" fill="none" xmlns="http://www.w3.org/2000/svg">
<path d="M1.04338 13.0975L5.13852 15.4618L3.0447 19.0884C2.43069 20.1519 2.35116 21.5648 2.56589 21.6887C2.77295 21.8083 3.95678 21.033 4.57079 19.9695L6.6646 16.3429L10.7674 18.7116C11.4959 19.1323 12.2288 18.9433 12.6308 18.247C13.5849 16.5944 13.21 14.2153 11.6646 12.2519L13.513 8.48361C14.8734 8.41208 16.1935 8.21534 16.8761 7.93617C17.2422 7.78028 17.5009 7.5624 17.6423 7.31757C17.9338 6.8126 17.7669 6.21632 17.184 5.87982L8.94008 1.12018C8.36492 0.788109 7.75736 0.937204 7.46582 1.44217C7.32447 1.68701 7.26514 2.02 7.31317 2.41498C7.41273 3.14576 7.91009 4.39184 8.52064 5.60126L6.18142 9.08617C3.71605 8.73393 1.46054 9.59441 0.5064 11.247C0.104422 11.9433 0.314847 12.6769 1.04338 13.0975ZM9.22723 10.151C8.75943 9.88089 8.28047 9.66557 7.80684 9.49413L10.2544 5.78614C10.3372 5.6605 10.3495 5.58601 10.2763 5.48254C9.55349 4.36132 9.10932 3.28877 9.08055 3.03753C9.06779 2.91795 9.16123 2.88008 9.24559 2.92878L15.465 6.51955C15.5493 6.56825 15.5633 6.66811 15.4533 6.71685C15.2213 6.81755 14.0704 6.96917 12.738 6.90379C12.6118 6.89214 12.5535 6.94007 12.486 7.07456L10.4986 11.0482C10.1133 10.7238 9.68736 10.4166 9.22723 10.151ZM2.15151 11.9928C1.99813 11.9043 1.97771 11.7803 2.1144 11.6143C3.08915 10.3511 5.78687 9.85811 8.49395 11.421C11.1934 12.9796 12.1153 15.5623 11.5163 17.0425C11.4333 17.2395 11.3157 17.2838 11.1623 17.1952L2.15151 11.9928Z" fill="black"/>
</svg>
