<svg width="17" height="20" viewBox="0 0 17 20" fill="none" xmlns="http://www.w3.org/2000/svg">
<path d="M4.55111 20H12.4575C13.7824 20 14.6341 19.1766 14.7029 17.8132L15.2794 5.06419H16.2257C16.6645 5.06419 17 4.71005 17 4.26737C17 3.8247 16.6559 3.48827 16.2257 3.48827H12.4059V2.16025C12.4059 0.796813 11.5628 0 10.126 0H6.85678C5.42004 0 4.57692 0.796813 4.57692 2.16025V3.48827H0.774292C0.34413 3.48827 0 3.83355 0 4.26737C0 4.7189 0.34413 5.06419 0.774292 5.06419H1.72065L2.29706 17.8132C2.36589 19.1855 3.20901 20 4.55111 20ZM6.18573 2.23993C6.18573 1.7884 6.49545 1.49624 6.96862 1.49624H10.0142C10.4873 1.49624 10.7971 1.7884 10.7971 2.23993V3.48827H6.18573V2.23993ZM4.72318 18.4152C4.25 18.4152 3.90587 18.0522 3.88006 17.5299L3.30364 5.06419H13.6705L13.1113 17.5299C13.0941 18.0611 12.7586 18.4152 12.2682 18.4152H4.72318ZM5.96204 16.9898C6.33198 16.9898 6.56427 16.7508 6.55567 16.3966L6.29757 7.1359C6.28897 6.78176 6.04808 6.55157 5.69534 6.55157C5.33401 6.55157 5.10172 6.79062 5.11032 7.14475L5.36842 16.4055C5.37702 16.7596 5.61792 16.9898 5.96204 16.9898ZM8.5 16.9898C8.86134 16.9898 9.11083 16.7596 9.11083 16.4055V7.14475C9.11083 6.79062 8.86134 6.55157 8.5 6.55157C8.13866 6.55157 7.89777 6.79062 7.89777 7.14475V16.4055C7.89777 16.7596 8.13866 16.9898 8.5 16.9898ZM11.038 16.9987C11.3821 16.9987 11.623 16.7596 11.6316 16.4055L11.8897 7.14475C11.8983 6.79062 11.666 6.56043 11.3047 6.56043C10.9519 6.56043 10.711 6.79062 10.7024 7.14475L10.4443 16.4055C10.4357 16.7508 10.668 16.9987 11.038 16.9987Z" fill="#FF0000"/>
</svg>
